<?xml version="1.0" encoding="UTF-8" standalone="no"?>
<!-- Created with Inkscape (http://www.inkscape.org/) -->

<svg
   xmlns:dc="http://purl.org/dc/elements/1.1/"
   xmlns:cc="http://creativecommons.org/ns#"
   xmlns:rdf="http://www.w3.org/1999/02/22-rdf-syntax-ns#"
   xmlns:svg="http://www.w3.org/2000/svg"
   xmlns="http://www.w3.org/2000/svg"
   xmlns:sodipodi="http://sodipodi.sourceforge.net/DTD/sodipodi-0.dtd"
   xmlns:inkscape="http://www.inkscape.org/namespaces/inkscape"
   width="679.90265"
   height="241.32761"
   id="svg2"
   version="1.1"
   inkscape:version="0.48.2 r9819"
   sodipodi:docname="InfCapture-results.svg"
   inkscape:export-filename="C:\Users\jhincapie\Desktop\Dropbox\CHI 2014 tPad\Images\InfCapture-results.png"
   inkscape:export-xdpi="180"
   inkscape:export-ydpi="180">
  <defs
     id="defs4">
    <clipPath
       id="clipEmfPath1"
       clipPathUnits="userSpaceOnUse">
      <rect
         id="rect2989"
         height="216.73228"
         width="212.00787"
         y="18.897638"
         x="65.551186" />
    </clipPath>
    <clipPath
       id="clipEmfPath1-0"
       clipPathUnits="userSpaceOnUse">
      <rect
         id="rect3176"
         height="217.91339"
         width="212.59843"
         y="18.897638"
         x="65.551186" />
    </clipPath>
  </defs>
  <sodipodi:namedview
     id="base"
     pagecolor="#ffffff"
     bordercolor="#666666"
     borderopacity="1.0"
     inkscape:pageopacity="0.0"
     inkscape:pageshadow="2"
     inkscape:zoom="0.49497475"
     inkscape:cx="35.063585"
     inkscape:cy="100.35328"
     inkscape:document-units="px"
     inkscape:current-layer="layer1"
     showgrid="false"
     fit-margin-top="0"
     fit-margin-left="0"
     fit-margin-right="0"
     fit-margin-bottom="0"
     inkscape:window-width="1920"
     inkscape:window-height="1018"
     inkscape:window-x="-8"
     inkscape:window-y="-8"
     inkscape:window-maximized="1"
     showguides="true"
     inkscape:guide-bbox="true" />
  <metadata
     id="metadata7">
    <rdf:RDF>
      <cc:Work
         rdf:about="">
        <dc:format>image/svg+xml</dc:format>
        <dc:type
           rdf:resource="http://purl.org/dc/dcmitype/StillImage" />
        <dc:title></dc:title>
      </cc:Work>
    </rdf:RDF>
  </metadata>
  <g
     inkscape:label="Layer 1"
     inkscape:groupmode="layer"
     id="layer1"
     transform="translate(9.4285715,-395.82028)">
    <text
       xml:space="preserve"
       style="font-size:16px;font-style:normal;font-weight:normal;text-align:center;line-height:125%;letter-spacing:0px;word-spacing:0px;text-anchor:middle;fill:#000000;fill-opacity:1;stroke:none;font-family:Sans"
       x="605.8847"
       y="427.28906"
       id="text3685"
       sodipodi:linespacing="125%"><tspan
         sodipodi:role="line"
         x="608.10345"
         y="427.28906"
         id="tspan5651">Error Bars </tspan><tspan
         sodipodi:role="line"
         x="605.8847"
         y="447.28906"
         id="tspan3144">+/- 1 SE</tspan></text>
    <g
       id="g5628"
       transform="translate(45.604948,285.9485)">
      <path
         id="path3478"
         d="m 497.45606,263.52686 0,16 16,0 0,-16 -16,0 z"
         style="fill:#3e58ac;fill-opacity:1;fill-rule:evenodd;stroke:#000000;stroke-width:1"
         inkscape:connector-curvature="0" />
      <text
         sodipodi:linespacing="125%"
         id="text3689"
         y="277.15967"
         x="516.73627"
         style="font-size:16px;font-style:normal;font-weight:normal;line-height:125%;letter-spacing:0px;word-spacing:0px;fill:#000000;fill-opacity:1;stroke:none;font-family:Sans"
         xml:space="preserve"><tspan
           y="277.15967"
           x="516.73627"
           id="tspan3691"
           sodipodi:role="line">Half</tspan></text>
    </g>
    <g
       id="g4493"
       transform="translate(311.98343,395.16882)">
      <text
         sodipodi:linespacing="125%"
         id="text3693"
         y="192.68808"
         x="250.40465"
         style="font-size:16px;font-style:normal;font-weight:normal;line-height:125%;letter-spacing:0px;word-spacing:0px;fill:#000000;fill-opacity:1;stroke:none;font-family:Sans"
         xml:space="preserve"><tspan
           y="192.68808"
           x="250.40465"
           id="tspan3695"
           sodipodi:role="line">Quarter</tspan></text>
      <path
         id="path3478-1"
         d="m 231.07758,179.05527 0,16 16,0 0,-16 -16,0 z"
         style="fill:#2eb848;fill-opacity:1;fill-rule:evenodd;stroke:#000000;stroke-width:1"
         inkscape:connector-curvature="0" />
    </g>
    <g
       id="g5618"
       transform="translate(-121.0647,335.44597)">
      <text
         sodipodi:linespacing="125%"
         id="text3697"
         y="277.15967"
         x="683.59344"
         style="font-size:16px;font-style:normal;font-weight:normal;line-height:125%;letter-spacing:0px;word-spacing:0px;fill:#000000;fill-opacity:1;stroke:none;font-family:Sans"
         xml:space="preserve"><tspan
           y="277.15967"
           x="683.59344"
           id="tspan3699"
           sodipodi:role="line">Three Quarters</tspan></text>
      <path
         id="path3478-15"
         d="m 664.12571,263.52686 0,16 16,0 0,-16 -16,0 z"
         style="fill:#d3ce97;fill-opacity:1;fill-rule:evenodd;stroke:#000000;stroke-width:1"
         inkscape:connector-curvature="0" />
    </g>
    <text
       xml:space="preserve"
       style="font-size:16px;font-style:normal;font-weight:normal;line-height:125%;letter-spacing:0px;word-spacing:0px;fill:#000000;fill-opacity:1;stroke:none;font-family:Sans"
       x="-573.19952"
       y="2.219866"
       id="text3782"
       sodipodi:linespacing="125%"
       transform="matrix(0,-1,1,0,0,0)"><tspan
         sodipodi:role="line"
         id="tspan3784"
         x="-573.19952"
         y="2.219866">Capture Time (sec)</tspan></text>
    <path
       inkscape:connector-curvature="0"
       style="fill:#f0f0f0;fill-opacity:1;fill-rule:evenodd;stroke:none"
       d="m 35.317891,417.63436 0,198.32039 211.380419,0 0,-198.32039 -211.380419,0 z"
       id="path3182" />
    <path
       inkscape:connector-curvature="0"
       style="fill:none;stroke:#999999;stroke-width:0.77499998;stroke-linecap:butt;stroke-linejoin:miter;stroke-miterlimit:4;stroke-opacity:1;stroke-dasharray:1.55000001, 1.55000001;stroke-dashoffset:0"
       d="m 246.49625,571.34619 -210.403259,0"
       id="path3200-3" />
    <path
       inkscape:connector-curvature="0"
       style="fill:none;stroke:#999999;stroke-width:0.77499998;stroke-linecap:butt;stroke-linejoin:miter;stroke-miterlimit:4;stroke-opacity:1;stroke-dasharray:1.55000001, 1.55000001;stroke-dashoffset:0"
       d="m 246.49625,526.70381 -210.403259,0"
       id="path3200-3-3" />
    <path
       inkscape:connector-curvature="0"
       style="fill:none;stroke:#999999;stroke-width:0.77499998;stroke-linecap:butt;stroke-linejoin:miter;stroke-miterlimit:4;stroke-opacity:1;stroke-dasharray:1.55000001, 1.55000001;stroke-dashoffset:0"
       d="m 246.49625,482.09525 -210.403269,0"
       id="path3200-3-4" />
    <path
       inkscape:connector-curvature="0"
       style="fill:none;stroke:#999999;stroke-width:0.77499998;stroke-linecap:butt;stroke-linejoin:miter;stroke-miterlimit:4;stroke-opacity:1;stroke-dasharray:1.55000001, 1.55000001;stroke-dashoffset:0"
       d="m 246.49625,437.45287 -210.403259,0"
       id="path3200-3-1" />
    <path
       inkscape:connector-curvature="0"
       style="fill:none;stroke:#000000;stroke-width:0.40600395px;stroke-linecap:butt;stroke-linejoin:miter;stroke-miterlimit:4;stroke-opacity:1;stroke-dasharray:none"
       d="m 35.317891,615.95475 211.380419,0"
       id="path3184" />
    <path
       inkscape:connector-curvature="0"
       style="fill:none;stroke:#000000;stroke-width:0.77509844px;stroke-linecap:butt;stroke-linejoin:miter;stroke-miterlimit:4;stroke-opacity:1;stroke-dasharray:none"
       d="m 86.326751,615.94928 0,4.17076"
       id="path3186" />
    <path
       inkscape:connector-curvature="0"
       style="fill:none;stroke:#000000;stroke-width:0.77509844px;stroke-linecap:butt;stroke-linejoin:miter;stroke-miterlimit:4;stroke-opacity:1;stroke-dasharray:none"
       d="m 195.72636,615.94928 0,4.17076"
       id="path3188" />
    <path
       inkscape:connector-curvature="0"
       style="fill:none;stroke:#000000;stroke-width:0.40600395px;stroke-linecap:butt;stroke-linejoin:miter;stroke-miterlimit:4;stroke-opacity:1;stroke-dasharray:none"
       d="m 35.317891,417.63436 0,198.32039"
       id="path3196" />
    <path
       inkscape:connector-curvature="0"
       style="fill:none;stroke:#000000;stroke-width:0.77509844px;stroke-linecap:butt;stroke-linejoin:miter;stroke-miterlimit:4;stroke-opacity:1;stroke-dasharray:none"
       d="m 35.317891,615.95475 -4.17077,0"
       id="path3198" />
    <path
       inkscape:connector-curvature="0"
       style="fill:none;stroke:#000000;stroke-width:0.77509844px;stroke-linecap:butt;stroke-linejoin:miter;stroke-miterlimit:4;stroke-opacity:1;stroke-dasharray:none"
       d="m 35.317891,571.34619 -4.17077,0"
       id="path3200" />
    <path
       inkscape:connector-curvature="0"
       style="fill:none;stroke:#000000;stroke-width:0.77509844px;stroke-linecap:butt;stroke-linejoin:miter;stroke-miterlimit:4;stroke-opacity:1;stroke-dasharray:none"
       d="m 35.317891,526.70381 -4.17077,0"
       id="path3202" />
    <path
       inkscape:connector-curvature="0"
       style="fill:none;stroke:#000000;stroke-width:0.77509844px;stroke-linecap:butt;stroke-linejoin:miter;stroke-miterlimit:4;stroke-opacity:1;stroke-dasharray:none"
       d="m 35.317891,482.09525 -4.17077,0"
       id="path3204" />
    <path
       inkscape:connector-curvature="0"
       style="fill:none;stroke:#000000;stroke-width:0.77509844px;stroke-linecap:butt;stroke-linejoin:miter;stroke-miterlimit:4;stroke-opacity:1;stroke-dasharray:none"
       d="m 35.317891,437.45287 -4.17077,0"
       id="path3206" />
    <path
       inkscape:connector-curvature="0"
       style="fill:#3e58ac;fill-opacity:1;fill-rule:evenodd;stroke:none"
       d="m 45.873991,534.58387 0,81.37088 26.9439,0 0,-81.37088 -26.9439,0 z"
       id="path3220" />
    <path
       inkscape:connector-curvature="0"
       style="fill:none;stroke:#000000;stroke-width:0.61693531px;stroke-linecap:butt;stroke-linejoin:miter;stroke-miterlimit:4;stroke-opacity:1;stroke-dasharray:none"
       clip-path="url(#clipEmfPath1-0)"
       d="m 103.82628,235.74066 0,-88.80414 -26.943896,0 0,88.80414 26.943896,0 z"
       id="path3222"
       transform="matrix(1,0,0,0.91629609,-31.008391,399.94651)" />
    <path
       inkscape:connector-curvature="0"
       style="fill:#3e58ac;fill-opacity:1;fill-rule:evenodd;stroke:none"
       d="m 155.2736,563.29703 0,52.65772 26.9439,0 0,-52.65772 -26.9439,0 z"
       id="path3224" />
    <path
       inkscape:connector-curvature="0"
       style="fill:none;stroke:#000000;stroke-width:0.61693531px;stroke-linecap:butt;stroke-linejoin:miter;stroke-miterlimit:4;stroke-opacity:1;stroke-dasharray:none"
       clip-path="url(#clipEmfPath1-0)"
       d="m 213.22589,235.74066 0,-57.46802 -26.9439,0 0,57.46802 26.9439,0 z"
       id="path3226"
       transform="matrix(1,0,0,0.91629609,-31.008391,399.94651)" />
    <path
       inkscape:connector-curvature="0"
       style="fill:#2eb848;fill-opacity:1;fill-rule:evenodd;stroke:none"
       d="m 72.817891,534.82061 0,81.13414 26.98081,0 0,-81.13414 -26.98081,0 z"
       id="path3228" />
    <path
       inkscape:connector-curvature="0"
       style="fill:none;stroke:#000000;stroke-width:0.61693531px;stroke-linecap:butt;stroke-linejoin:miter;stroke-miterlimit:4;stroke-opacity:1;stroke-dasharray:none"
       clip-path="url(#clipEmfPath1-0)"
       d="m 130.80709,235.74066 0,-88.54577 -26.98081,0 0,88.54577 26.98081,0 z"
       id="path3230"
       transform="matrix(1,0,0,0.91629609,-31.008391,399.94651)" />
    <path
       inkscape:connector-curvature="0"
       style="fill:#2eb848;fill-opacity:1;fill-rule:evenodd;stroke:none"
       d="m 182.25441,557.61528 0,58.33947 26.9439,0 0,-58.33947 -26.9439,0 z"
       id="path3232" />
    <path
       inkscape:connector-curvature="0"
       style="fill:none;stroke:#000000;stroke-width:0.61693531px;stroke-linecap:butt;stroke-linejoin:miter;stroke-miterlimit:4;stroke-opacity:1;stroke-dasharray:none"
       clip-path="url(#clipEmfPath1-0)"
       d="m 240.2067,235.74066 0,-63.6688 -26.9439,0 0,63.6688 26.9439,0 z"
       id="path3234"
       transform="matrix(1,0,0,0.91629609,-31.008391,399.94651)" />
    <path
       inkscape:connector-curvature="0"
       style="fill:#d3ce97;fill-opacity:1;fill-rule:evenodd;stroke:none"
       d="m 99.798701,544.89896 0,71.05579 26.943899,0 0,-71.05579 -26.943899,0 z"
       id="path3236" />
    <path
       inkscape:connector-curvature="0"
       style="fill:none;stroke:#000000;stroke-width:0.61693531px;stroke-linecap:butt;stroke-linejoin:miter;stroke-miterlimit:4;stroke-opacity:1;stroke-dasharray:none"
       clip-path="url(#clipEmfPath1-0)"
       d="m 157.75099,235.74066 0,-77.54676 -26.9439,0 0,77.54676 26.9439,0 z"
       id="path3238"
       transform="matrix(1,0,0,0.91629609,-31.008391,399.94651)" />
    <path
       inkscape:connector-curvature="0"
       style="fill:#d3ce97;fill-opacity:1;fill-rule:evenodd;stroke:none"
       d="m 209.19831,566.88195 0,49.0728 26.9439,0 0,-49.0728 -26.9439,0 z"
       id="path3240" />
    <path
       inkscape:connector-curvature="0"
       style="fill:none;stroke:#000000;stroke-width:0.61693531px;stroke-linecap:butt;stroke-linejoin:miter;stroke-miterlimit:4;stroke-opacity:1;stroke-dasharray:none"
       clip-path="url(#clipEmfPath1-0)"
       d="m 267.1506,235.74066 0,-53.55562 -26.9439,0 0,53.55562 26.9439,0 z"
       id="path3242"
       transform="matrix(1,0,0,0.91629609,-31.008391,399.94651)" />
    <path
       inkscape:connector-curvature="0"
       style="fill:#000000;fill-opacity:1;fill-rule:evenodd;stroke:none"
       d="m 55.987181,539.75833 3.35876,0 0,-10.31511 -3.35876,0 6.75443,0 -3.39567,0 0,10.31511 3.39567,0 -6.75443,0 z"
       id="path3244" />
    <path
       inkscape:connector-curvature="0"
       style="fill:none;stroke:#000000;stroke-width:0.5905512px;stroke-linecap:butt;stroke-linejoin:miter;stroke-miterlimit:4;stroke-opacity:1;stroke-dasharray:none"
       d="m 55.987181,539.75833 3.35876,0 0,-10.3151 -3.35876,0 6.75443,0 -3.39567,0 0,10.3151 3.39567,0 -6.75443,0 z"
       id="path3246" />
    <path
       inkscape:connector-curvature="0"
       style="fill:#000000;fill-opacity:1;fill-rule:evenodd;stroke:none"
       d="m 165.38679,568.40385 3.35876,0 0,-10.17981 -3.35876,0 6.75443,0 -3.39567,0 0,10.17981 3.39567,0 -6.75443,0 z"
       id="path3248" />
    <path
       inkscape:connector-curvature="0"
       style="fill:none;stroke:#000000;stroke-width:0.5905512px;stroke-linecap:butt;stroke-linejoin:miter;stroke-miterlimit:4;stroke-opacity:1;stroke-dasharray:none"
       d="m 165.38679,568.40385 3.35876,0 0,-10.17981 -3.35876,0 6.75443,0 -3.39567,0 0,10.17981 3.39567,0 -6.75443,0 z"
       id="path3250" />
    <path
       inkscape:connector-curvature="0"
       style="fill:#000000;fill-opacity:1;fill-rule:evenodd;stroke:none"
       d="m 82.931081,539.31866 3.39567,0 0,-8.99611 -3.39567,0 6.75443,0 -3.35876,0 0,8.99611 3.35876,0 -6.75443,0 z"
       id="path3252" />
    <path
       inkscape:connector-curvature="0"
       style="fill:none;stroke:#000000;stroke-width:0.5905512px;stroke-linecap:butt;stroke-linejoin:miter;stroke-miterlimit:4;stroke-opacity:1;stroke-dasharray:none"
       d="m 82.931081,539.31866 3.39567,0 0,-8.99611 -3.39567,0 6.75443,0 -3.35876,0 0,8.99611 3.35876,0 -6.75443,0 z"
       id="path3254" />
    <path
       inkscape:connector-curvature="0"
       style="fill:#000000;fill-opacity:1;fill-rule:evenodd;stroke:none"
       d="m 192.33069,562.62063 3.39567,0 0,-10.01071 -3.39567,0 6.75443,0 -3.35876,0 0,10.01071 3.35876,0 -6.75443,0 z"
       id="path3256" />
    <path
       inkscape:connector-curvature="0"
       style="fill:none;stroke:#000000;stroke-width:0.5905512px;stroke-linecap:butt;stroke-linejoin:miter;stroke-miterlimit:4;stroke-opacity:1;stroke-dasharray:none"
       d="m 192.33069,562.62063 3.39567,0 0,-10.01071 -3.39567,0 6.75443,0 -3.35876,0 0,10.01071 3.35876,0 -6.75443,0 z"
       id="path3258" />
    <path
       inkscape:connector-curvature="0"
       style="fill:#000000;fill-opacity:1;fill-rule:evenodd;stroke:none"
       d="m 109.91189,548.8559 3.35876,0 0,-7.91387 -3.35876,0 6.71752,0 -3.35876,0 0,7.91387 3.35876,0 -6.71752,0 z"
       id="path3260" />
    <path
       inkscape:connector-curvature="0"
       style="fill:none;stroke:#000000;stroke-width:0.5905512px;stroke-linecap:butt;stroke-linejoin:miter;stroke-miterlimit:4;stroke-opacity:1;stroke-dasharray:none"
       d="m 109.91189,548.8559 3.35876,0 0,-7.91387 -3.35876,0 6.71752,0 -3.35876,0 0,7.91387 3.35876,0 -6.71752,0 z"
       id="path3262" />
    <path
       inkscape:connector-curvature="0"
       style="fill:#000000;fill-opacity:1;fill-rule:evenodd;stroke:none"
       d="m 219.3115,571.38001 3.35876,0 0,-8.99612 -3.35876,0 6.71752,0 -3.35876,0 0,8.99612 3.35876,0 -6.71752,0 z"
       id="path3264" />
    <path
       inkscape:connector-curvature="0"
       style="fill:none;stroke:#000000;stroke-width:0.5905512px;stroke-linecap:butt;stroke-linejoin:miter;stroke-miterlimit:4;stroke-opacity:1;stroke-dasharray:none"
       d="m 219.3115,571.38001 3.35876,0 0,-8.99611 -3.35876,0 6.71752,0 -3.35876,0 0,8.99611 3.35876,0 -6.71752,0 z"
       id="path3266" />
    <path
       inkscape:connector-curvature="0"
       style="fill:none;stroke:#000000;stroke-width:0.5905512px;stroke-linecap:butt;stroke-linejoin:miter;stroke-miterlimit:4;stroke-opacity:1;stroke-dasharray:none"
       d="m 35.317891,417.63436 211.380419,0 0,198.32039 -211.380419,0 0,-198.32039 z"
       id="path3268" />
    <text
       xml:space="preserve"
       style="font-size:16px;font-style:normal;font-weight:normal;line-height:125%;letter-spacing:0px;word-spacing:0px;fill:#000000;fill-opacity:1;stroke:none;font-family:Sans"
       x="17.626368"
       y="621.60162"
       id="text3758"
       sodipodi:linespacing="125%"><tspan
         sodipodi:role="line"
         id="tspan3760"
         x="17.626368"
         y="621.60162">0</tspan></text>
    <text
       xml:space="preserve"
       style="font-size:16px;font-style:normal;font-weight:normal;line-height:125%;letter-spacing:0px;word-spacing:0px;fill:#000000;fill-opacity:1;stroke:none;font-family:Sans"
       x="17.626368"
       y="572.91809"
       id="text3758-1"
       sodipodi:linespacing="125%"><tspan
         sodipodi:role="line"
         id="tspan3760-4"
         x="17.626368"
         y="572.91809">5</tspan></text>
    <text
       xml:space="preserve"
       style="font-size:16px;font-style:normal;font-weight:normal;line-height:125%;letter-spacing:0px;word-spacing:0px;fill:#000000;fill-opacity:1;stroke:none;font-family:Sans"
       x="8.8451176"
       y="524.19757"
       id="text3758-2"
       sodipodi:linespacing="125%"><tspan
         sodipodi:role="line"
         id="tspan3760-3"
         x="8.8451176"
         y="524.19757">10</tspan></text>
    <text
       xml:space="preserve"
       style="font-size:16px;font-style:normal;font-weight:normal;line-height:125%;letter-spacing:0px;word-spacing:0px;fill:#000000;fill-opacity:1;stroke:none;font-family:Sans"
       x="8.7201176"
       y="475.51401"
       id="text3758-22"
       sodipodi:linespacing="125%"><tspan
         sodipodi:role="line"
         id="tspan3760-1"
         x="8.7201176"
         y="475.51401">15</tspan></text>
    <text
       xml:space="preserve"
       style="font-size:16px;font-style:normal;font-weight:normal;line-height:125%;letter-spacing:0px;word-spacing:0px;fill:#000000;fill-opacity:1;stroke:none;font-family:Sans"
       x="8.8451176"
       y="426.79355"
       id="text3758-6"
       sodipodi:linespacing="125%"><tspan
         sodipodi:role="line"
         id="tspan3760-8"
         x="8.8451176"
         y="426.79355">20</tspan></text>
    <text
       xml:space="preserve"
       style="font-size:16px;font-style:normal;font-weight:normal;line-height:125%;letter-spacing:0px;word-spacing:0px;fill:#000000;fill-opacity:1;stroke:none;font-family:Sans"
       x="60.471287"
       y="636.96039"
       id="text3786-2-4"
       sodipodi:linespacing="125%"><tspan
         sodipodi:role="line"
         id="tspan3788-7-3"
         x="60.471287"
         y="636.96039">Normal</tspan></text>
    <text
       xml:space="preserve"
       style="font-size:16px;font-style:normal;font-weight:normal;line-height:125%;letter-spacing:0px;word-spacing:0px;fill:#000000;fill-opacity:1;stroke:none;font-family:Sans"
       x="179.69901"
       y="636.96039"
       id="text3786-2-4-1"
       sodipodi:linespacing="125%"><tspan
         sodipodi:role="line"
         id="tspan3788-7-3-2"
         x="179.69901"
         y="636.96039">tPad</tspan></text>
    <text
       xml:space="preserve"
       style="font-size:16px;font-style:normal;font-weight:normal;line-height:125%;letter-spacing:0px;word-spacing:0px;fill:#000000;fill-opacity:1;stroke:none;font-family:Sans"
       x="95.984665"
       y="407.46872"
       id="text3786-2-4-13"
       sodipodi:linespacing="125%"><tspan
         sodipodi:role="line"
         id="tspan3788-7-3-8"
         x="95.984665"
         y="407.46872">No Cropping</tspan></text>
    <path
       inkscape:connector-curvature="0"
       style="fill:#f0f0f0;fill-opacity:1;fill-rule:evenodd;stroke:none"
       d="m 310.74465,416.13122 0,199.88748 210.5315,0 0,-199.88748 -210.5315,0 z"
       id="path2995" />
    <path
       inkscape:connector-curvature="0"
       style="fill:none;stroke:#999999;stroke-width:0.77499998;stroke-linecap:butt;stroke-linejoin:miter;stroke-miterlimit:4;stroke-opacity:1;stroke-dasharray:1.55000001, 1.55000001;stroke-dashoffset:0"
       d="m 520.72561,571.06285 -209.20591,0"
       id="path3200-3-31" />
    <path
       inkscape:connector-curvature="0"
       style="fill:none;stroke:#999999;stroke-width:0.77499998;stroke-linecap:butt;stroke-linejoin:miter;stroke-miterlimit:4;stroke-opacity:1;stroke-dasharray:1.55000002, 1.55000002;stroke-dashoffset:0"
       d="m 520.22146,526.07276 -208.70176,0"
       id="path3200-3-3-9" />
    <path
       inkscape:connector-curvature="0"
       style="fill:none;stroke:#999999;stroke-width:0.77499998;stroke-linecap:butt;stroke-linejoin:miter;stroke-miterlimit:4;stroke-opacity:1;stroke-dasharray:1.55000001, 1.55000001;stroke-dashoffset:0"
       d="m 520.78655,481.11691 -209.26685,0"
       id="path3200-3-4-8" />
    <path
       inkscape:connector-curvature="0"
       style="fill:none;stroke:#999999;stroke-width:0.77499998;stroke-linecap:butt;stroke-linejoin:miter;stroke-miterlimit:4;stroke-opacity:1;stroke-dasharray:1.55000001, 1.55000001;stroke-dashoffset:0"
       d="m 520.78654,436.12682 -209.26684,0"
       id="path3200-3-1-6" />
    <path
       inkscape:connector-curvature="0"
       style="fill:none;stroke:#000000;stroke-width:0.40600395px;stroke-linecap:butt;stroke-linejoin:miter;stroke-miterlimit:4;stroke-opacity:1;stroke-dasharray:none"
       d="m 310.74465,616.0187 210.5315,0"
       id="path2997" />
    <path
       inkscape:connector-curvature="0"
       style="fill:none;stroke:#000000;stroke-width:0.77509844px;stroke-linecap:butt;stroke-linejoin:miter;stroke-miterlimit:4;stroke-opacity:1;stroke-dasharray:none"
       d="m 361.53205,615.94927 0,4.17077"
       id="path2999" />
    <path
       inkscape:connector-curvature="0"
       style="fill:none;stroke:#000000;stroke-width:0.77509844px;stroke-linecap:butt;stroke-linejoin:miter;stroke-miterlimit:4;stroke-opacity:1;stroke-dasharray:none"
       d="m 470.48875,615.94927 0,4.17077"
       id="path3001" />
    <path
       inkscape:connector-curvature="0"
       style="fill:none;stroke:#000000;stroke-width:0.40600395px;stroke-linecap:butt;stroke-linejoin:miter;stroke-miterlimit:4;stroke-opacity:1;stroke-dasharray:none"
       d="m 310.74465,416.13122 0,199.88748"
       id="path3009" />
    <path
       inkscape:connector-curvature="0"
       style="fill:none;stroke:#000000;stroke-width:0.77509844px;stroke-linecap:butt;stroke-linejoin:miter;stroke-miterlimit:4;stroke-opacity:1;stroke-dasharray:none"
       d="m 310.74465,616.0187 -4.17077,0"
       id="path3011" />
    <path
       inkscape:connector-curvature="0"
       style="fill:none;stroke:#000000;stroke-width:0.77509844px;stroke-linecap:butt;stroke-linejoin:miter;stroke-miterlimit:4;stroke-opacity:1;stroke-dasharray:none"
       d="m 310.74465,571.06285 -4.17077,0"
       id="path3013" />
    <path
       inkscape:connector-curvature="0"
       style="fill:none;stroke:#000000;stroke-width:0.77509844px;stroke-linecap:butt;stroke-linejoin:miter;stroke-miterlimit:4;stroke-opacity:1;stroke-dasharray:none"
       d="m 310.74465,526.07276 -4.17077,0"
       id="path3015" />
    <path
       inkscape:connector-curvature="0"
       style="fill:none;stroke:#000000;stroke-width:0.77509844px;stroke-linecap:butt;stroke-linejoin:miter;stroke-miterlimit:4;stroke-opacity:1;stroke-dasharray:none"
       d="m 310.74465,481.11691 -4.17077,0"
       id="path3017" />
    <path
       inkscape:connector-curvature="0"
       style="fill:none;stroke:#000000;stroke-width:0.77509844px;stroke-linecap:butt;stroke-linejoin:miter;stroke-miterlimit:4;stroke-opacity:1;stroke-dasharray:none"
       d="m 310.74465,436.12682 -4.17077,0"
       id="path3019" />
    <path
       inkscape:connector-curvature="0"
       style="fill:#3e58ac;fill-opacity:1;fill-rule:evenodd;stroke:none"
       d="m 321.26384,475.43323 0,140.58547 26.87008,0 0,-140.58547 -26.87008,0 z"
       id="path3033" />
    <path
       inkscape:connector-curvature="0"
       style="fill:none;stroke:#000000;stroke-width:0.61314839px;stroke-linecap:butt;stroke-linejoin:miter;stroke-miterlimit:4;stroke-opacity:1;stroke-dasharray:none"
       clip-path="url(#clipEmfPath1)"
       d="m 103.67864,234.67028 0,-151.550199 -26.870075,0 0,151.550199 26.870075,0 z"
       id="path3035"
       transform="matrix(1,0,0,0.92764953,244.45528,398.32693)" />
    <path
       inkscape:connector-curvature="0"
       style="fill:#3e58ac;fill-opacity:1;fill-rule:evenodd;stroke:none"
       d="m 430.22054,525.52494 0,90.49376 26.87008,0 0,-90.49376 -26.87008,0 z"
       id="path3037" />
    <path
       inkscape:connector-curvature="0"
       style="fill:none;stroke:#000000;stroke-width:0.61314839px;stroke-linecap:butt;stroke-linejoin:miter;stroke-miterlimit:4;stroke-opacity:1;stroke-dasharray:none"
       clip-path="url(#clipEmfPath1)"
       d="m 212.63534,234.67028 0,-97.55167 -26.87008,0 0,97.55167 26.87008,0 z"
       id="path3039"
       transform="matrix(1,0,0,0.92764953,244.45528,398.32693)" />
    <path
       inkscape:connector-curvature="0"
       style="fill:#2eb848;fill-opacity:1;fill-rule:evenodd;stroke:none"
       d="m 348.13392,470.22889 0,145.78981 26.83317,0 0,-145.78981 -26.83317,0 z"
       id="path3041" />
    <path
       inkscape:connector-curvature="0"
       style="fill:none;stroke:#000000;stroke-width:0.61314839px;stroke-linecap:butt;stroke-linejoin:miter;stroke-miterlimit:4;stroke-opacity:1;stroke-dasharray:none"
       clip-path="url(#clipEmfPath1)"
       d="m 130.51181,234.67028 0,-157.160435 -26.83317,0 0,157.160435 26.83317,0 z"
       id="path3043"
       transform="matrix(1,0,0,0.92764953,244.45528,398.32693)" />
    <path
       inkscape:connector-curvature="0"
       style="fill:#2eb848;fill-opacity:1;fill-rule:evenodd;stroke:none"
       d="m 457.09062,534.63252 0,81.38618 26.83317,0 0,-81.38618 -26.83317,0 z"
       id="path3045" />
    <path
       inkscape:connector-curvature="0"
       style="fill:none;stroke:#000000;stroke-width:0.61314839px;stroke-linecap:butt;stroke-linejoin:miter;stroke-miterlimit:4;stroke-opacity:1;stroke-dasharray:none"
       clip-path="url(#clipEmfPath1)"
       d="m 239.46851,234.67028 0,-87.73376 -26.83317,0 0,87.73376 26.83317,0 z"
       id="path3047"
       transform="matrix(1,0,0,0.92764953,244.45528,398.32693)" />
    <path
       inkscape:connector-curvature="0"
       style="fill:#d3ce97;fill-opacity:1;fill-rule:evenodd;stroke:none"
       d="m 374.96709,467.2501 0,148.7686 26.83317,0 0,-148.7686 -26.83317,0 z"
       id="path3049" />
    <path
       inkscape:connector-curvature="0"
       style="fill:none;stroke:#000000;stroke-width:0.61314839px;stroke-linecap:butt;stroke-linejoin:miter;stroke-miterlimit:4;stroke-opacity:1;stroke-dasharray:none"
       clip-path="url(#clipEmfPath1)"
       d="m 157.34498,234.67028 0,-160.371557 -26.83317,0 0,160.371557 26.83317,0 z"
       id="path3051"
       transform="matrix(1,0,0,0.92764953,244.45528,398.32693)" />
    <path
       inkscape:connector-curvature="0"
       style="fill:#d3ce97;fill-opacity:1;fill-rule:evenodd;stroke:none"
       d="m 483.92379,535.38578 0,80.63292 26.83317,0 0,-80.63292 -26.83317,0 z"
       id="path3053" />
    <path
       inkscape:connector-curvature="0"
       style="fill:none;stroke:#000000;stroke-width:0.61314839px;stroke-linecap:butt;stroke-linejoin:miter;stroke-miterlimit:4;stroke-opacity:1;stroke-dasharray:none"
       clip-path="url(#clipEmfPath1)"
       d="m 266.30168,234.67028 0,-86.92175 -26.83317,0 0,86.92175 26.83317,0 z"
       id="path3055"
       transform="matrix(1,0,0,0.92764953,244.45528,398.32693)" />
    <path
       inkscape:connector-curvature="0"
       style="fill:#000000;fill-opacity:1;fill-rule:evenodd;stroke:none"
       d="m 331.34012,481.21963 3.35877,0 0,-11.53856 -3.35877,0 6.71753,0 -3.35877,0 0,11.53856 3.35877,0 -6.71753,0 z"
       id="path3057" />
    <path
       inkscape:connector-curvature="0"
       style="fill:none;stroke:#000000;stroke-width:0.5905512px;stroke-linecap:butt;stroke-linejoin:miter;stroke-miterlimit:4;stroke-opacity:1;stroke-dasharray:none"
       d="m 331.34012,481.21963 3.35877,0 0,-11.53856 -3.35877,0 6.71753,0 -3.35877,0 0,11.53856 3.35877,0 -6.71753,0 z"
       id="path3059" />
    <path
       inkscape:connector-curvature="0"
       style="fill:#000000;fill-opacity:1;fill-rule:evenodd;stroke:none"
       d="m 440.29682,530.76351 3.35876,0 0,-10.51139 -3.35876,0 6.71752,0 -3.35876,0 0,10.51139 3.35876,0 -6.71752,0 z"
       id="path3061" />
    <path
       inkscape:connector-curvature="0"
       style="fill:none;stroke:#000000;stroke-width:0.5905512px;stroke-linecap:butt;stroke-linejoin:miter;stroke-miterlimit:4;stroke-opacity:1;stroke-dasharray:none"
       d="m 440.29682,530.76351 3.35876,0 0,-10.51139 -3.35876,0 6.71752,0 -3.35876,0 0,10.51139 3.35876,0 -6.71752,0 z"
       id="path3063" />
    <path
       inkscape:connector-curvature="0"
       style="fill:#000000;fill-opacity:1;fill-rule:evenodd;stroke:none"
       d="m 358.17329,476.63159 3.35876,0 0,-12.80539 -3.35876,0 6.71752,0 -3.35876,0 0,12.80539 3.35876,0 -6.71752,0 z"
       id="path3065" />
    <path
       inkscape:connector-curvature="0"
       style="fill:none;stroke:#000000;stroke-width:0.5905512px;stroke-linecap:butt;stroke-linejoin:miter;stroke-miterlimit:4;stroke-opacity:1;stroke-dasharray:none"
       d="m 358.17329,476.63159 3.35876,0 0,-12.80539 -3.35876,0 6.71752,0 -3.35876,0 0,12.80539 3.35876,0 -6.71752,0 z"
       id="path3067" />
    <path
       inkscape:connector-curvature="0"
       style="fill:#000000;fill-opacity:1;fill-rule:evenodd;stroke:none"
       d="m 467.12999,539.9738 3.35876,0 0,-10.68257 -3.35876,0 6.71752,0 -3.35876,0 0,10.68257 3.35876,0 -6.71752,0 z"
       id="path3069" />
    <path
       inkscape:connector-curvature="0"
       style="fill:none;stroke:#000000;stroke-width:0.5905512px;stroke-linecap:butt;stroke-linejoin:miter;stroke-miterlimit:4;stroke-opacity:1;stroke-dasharray:none"
       d="m 467.12999,539.9738 3.35876,0 0,-10.68257 -3.35876,0 6.71752,0 -3.35876,0 0,10.68257 3.35876,0 -6.71752,0 z"
       id="path3071" />
    <path
       inkscape:connector-curvature="0"
       style="fill:#000000;fill-opacity:1;fill-rule:evenodd;stroke:none"
       d="m 385.04337,473.37888 3.35876,0 0,-12.25757 -3.35876,0 6.68061,0 -3.32185,0 0,12.25757 3.32185,0 -6.68061,0 z"
       id="path3073" />
    <path
       inkscape:connector-curvature="0"
       style="fill:none;stroke:#000000;stroke-width:0.5905512px;stroke-linecap:butt;stroke-linejoin:miter;stroke-miterlimit:4;stroke-opacity:1;stroke-dasharray:none"
       d="m 385.04337,473.37888 3.35876,0 0,-12.25757 -3.35876,0 6.68061,0 -3.32185,0 0,12.25757 3.32185,0 -6.68061,0 z"
       id="path3075" />
    <path
       inkscape:connector-curvature="0"
       style="fill:#000000;fill-opacity:1;fill-rule:evenodd;stroke:none"
       d="m 494.00007,539.73414 3.35876,0 0,-8.69672 -3.35876,0 6.68061,0 -3.32185,0 0,8.69672 3.32185,0 -6.68061,0 z"
       id="path3077" />
    <path
       inkscape:connector-curvature="0"
       style="fill:none;stroke:#000000;stroke-width:0.5905512px;stroke-linecap:butt;stroke-linejoin:miter;stroke-miterlimit:4;stroke-opacity:1;stroke-dasharray:none"
       d="m 494.00007,539.73414 3.35876,0 0,-8.69672 -3.35876,0 6.68061,0 -3.32185,0 0,8.69672 3.32185,0 -6.68061,0 z"
       id="path3079" />
    <path
       inkscape:connector-curvature="0"
       style="fill:none;stroke:#000000;stroke-width:0.5905512px;stroke-linecap:butt;stroke-linejoin:miter;stroke-miterlimit:4;stroke-opacity:1;stroke-dasharray:none"
       d="m 310.74465,416.13122 210.5315,0 0,199.88748 -210.5315,0 0,-199.88748 z"
       id="path3081" />
    <text
       xml:space="preserve"
       style="font-size:16px;font-style:normal;font-weight:normal;line-height:125%;letter-spacing:0px;word-spacing:0px;fill:#000000;fill-opacity:1;stroke:none;font-family:Sans"
       x="335.67657"
       y="636.96039"
       id="text3786-2-4-7"
       sodipodi:linespacing="125%"><tspan
         sodipodi:role="line"
         id="tspan3788-7-3-4"
         x="335.67657"
         y="636.96039">Normal</tspan></text>
    <text
       xml:space="preserve"
       style="font-size:16px;font-style:normal;font-weight:normal;line-height:125%;letter-spacing:0px;word-spacing:0px;fill:#000000;fill-opacity:1;stroke:none;font-family:Sans"
       x="454.46143"
       y="636.96039"
       id="text3786-2-4-1-2"
       sodipodi:linespacing="125%"><tspan
         sodipodi:role="line"
         id="tspan3788-7-3-2-7"
         x="454.46143"
         y="636.96039">tPad</tspan></text>
    <text
       xml:space="preserve"
       style="font-size:16px;font-style:normal;font-weight:normal;line-height:125%;letter-spacing:0px;word-spacing:0px;fill:#000000;fill-opacity:1;stroke:none;font-family:Sans"
       x="383.65103"
       y="407.46872"
       id="text3786-2-4-13-7"
       sodipodi:linespacing="125%"><tspan
         sodipodi:role="line"
         id="tspan3788-7-3-8-9"
         x="383.65103"
         y="407.46872">Cropping</tspan></text>
    <text
       xml:space="preserve"
       style="font-size:16px;font-style:normal;font-weight:normal;line-height:125%;letter-spacing:0px;word-spacing:0px;fill:#000000;fill-opacity:1;stroke:none;font-family:Sans"
       x="-581.5437"
       y="277.39777"
       id="text3782-5"
       sodipodi:linespacing="125%"
       transform="matrix(0,-1,1,0,0,0)"><tspan
         sodipodi:role="line"
         id="tspan3784-0"
         x="-581.5437"
         y="277.39777">Capture Time (sec)</tspan></text>
    <text
       xml:space="preserve"
       style="font-size:16px;font-style:normal;font-weight:normal;line-height:125%;letter-spacing:0px;word-spacing:0px;fill:#000000;fill-opacity:1;stroke:none;font-family:Sans"
       x="293.05383"
       y="621.60162"
       id="text3758-28"
       sodipodi:linespacing="125%"><tspan
         sodipodi:role="line"
         id="tspan3760-6"
         x="293.05383"
         y="621.60162">0</tspan></text>
    <text
       xml:space="preserve"
       style="font-size:16px;font-style:normal;font-weight:normal;line-height:125%;letter-spacing:0px;word-spacing:0px;fill:#000000;fill-opacity:1;stroke:none;font-family:Sans"
       x="292.92883"
       y="576.61365"
       id="text3758-1-0"
       sodipodi:linespacing="125%"><tspan
         sodipodi:role="line"
         id="tspan3760-4-2"
         x="292.92883"
         y="576.61365">5</tspan></text>
    <text
       xml:space="preserve"
       style="font-size:16px;font-style:normal;font-weight:normal;line-height:125%;letter-spacing:0px;word-spacing:0px;fill:#000000;fill-opacity:1;stroke:none;font-family:Sans"
       x="284.14758"
       y="531.7251"
       id="text3758-2-4"
       sodipodi:linespacing="125%"><tspan
         sodipodi:role="line"
         id="tspan3760-3-8"
         x="284.14758"
         y="531.7251">10</tspan></text>
    <text
       xml:space="preserve"
       style="font-size:16px;font-style:normal;font-weight:normal;line-height:125%;letter-spacing:0px;word-spacing:0px;fill:#000000;fill-opacity:1;stroke:none;font-family:Sans"
       x="284.02258"
       y="486.76926"
       id="text3758-22-6"
       sodipodi:linespacing="125%"><tspan
         sodipodi:role="line"
         id="tspan3760-1-5"
         x="284.02258"
         y="486.76926">15</tspan></text>
    <text
       xml:space="preserve"
       style="font-size:16px;font-style:normal;font-weight:normal;line-height:125%;letter-spacing:0px;word-spacing:0px;fill:#000000;fill-opacity:1;stroke:none;font-family:Sans"
       x="284.14758"
       y="441.77917"
       id="text3758-6-0"
       sodipodi:linespacing="125%"><tspan
         sodipodi:role="line"
         id="tspan3760-8-9"
         x="284.14758"
         y="441.77917">20</tspan></text>
  </g>
</svg>
