<?xml version="1.0" encoding="UTF-8" standalone="no"?>
<!-- Created with Inkscape (http://www.inkscape.org/) -->

<svg
   xmlns:dc="http://purl.org/dc/elements/1.1/"
   xmlns:cc="http://creativecommons.org/ns#"
   xmlns:rdf="http://www.w3.org/1999/02/22-rdf-syntax-ns#"
   xmlns:svg="http://www.w3.org/2000/svg"
   xmlns="http://www.w3.org/2000/svg"
   xmlns:sodipodi="http://sodipodi.sourceforge.net/DTD/sodipodi-0.dtd"
   xmlns:inkscape="http://www.inkscape.org/namespaces/inkscape"
   width="713.09003"
   height="126"
   id="svg2"
   version="1.1"
   inkscape:version="0.48.4 r9939"
   sodipodi:docname="Result.svg"
   inkscape:export-filename="C:\Users\Sophie\Desktop\Result.png"
   inkscape:export-xdpi="162.17999"
   inkscape:export-ydpi="162.17999">
  <defs
     id="defs4">
    <marker
       inkscape:stockid="EmptyDiamondMend"
       orient="auto"
       refY="0"
       refX="0"
       id="EmptyDiamondMend"
       style="overflow:visible">
      <path
         id="path3990"
         d="M 0,-7.0710768 -7.0710894,0 0,7.0710589 7.0710462,0 0,-7.0710768 z"
         style="fill:#ffffff;fill-rule:evenodd;stroke:#000000;stroke-width:1pt"
         transform="matrix(0.4,0,0,0.4,-2.6,0)"
         inkscape:connector-curvature="0" />
    </marker>
    <marker
       inkscape:stockid="DotL"
       orient="auto"
       refY="0"
       refX="0"
       id="DotL"
       style="overflow:visible">
      <path
         id="path3924"
         d="m -2.5,-1 c 0,2.76 -2.24,5 -5,5 -2.76,0 -5,-2.24 -5,-5 0,-2.76 2.24,-5 5,-5 2.76,0 5,2.24 5,5 z"
         style="fill-rule:evenodd;stroke:#000000;stroke-width:1pt"
         transform="matrix(0.8,0,0,0.8,5.92,0.8)"
         inkscape:connector-curvature="0" />
    </marker>
    <marker
       inkscape:stockid="Arrow2Lstart"
       orient="auto"
       refY="0"
       refX="0"
       id="Arrow2Lstart"
       style="overflow:visible">
      <path
         id="path3881"
         style="fill-rule:evenodd;stroke-width:0.625;stroke-linejoin:round"
         d="M 8.7185878,4.0337352 -2.2072895,0.01601326 8.7185884,-4.0017078 c -1.7454984,2.3720609 -1.7354408,5.6174519 -6e-7,8.035443 z"
         transform="matrix(1.1,0,0,1.1,1.1,0)"
         inkscape:connector-curvature="0" />
    </marker>
    <marker
       inkscape:stockid="Arrow1Lend"
       orient="auto"
       refY="0"
       refX="0"
       id="Arrow1Lend"
       style="overflow:visible">
      <path
         id="path3866"
         d="M 0,0 5,-5 -12.5,0 5,5 0,0 z"
         style="fill-rule:evenodd;stroke:#000000;stroke-width:1pt"
         transform="matrix(-0.8,0,0,-0.8,-10,0)"
         inkscape:connector-curvature="0" />
    </marker>
    <marker
       inkscape:stockid="Arrow1Lstart"
       orient="auto"
       refY="0"
       refX="0"
       id="Arrow1Lstart"
       style="overflow:visible">
      <path
         id="path3863"
         d="M 0,0 5,-5 -12.5,0 5,5 0,0 z"
         style="fill-rule:evenodd;stroke:#000000;stroke-width:1pt"
         transform="matrix(0.8,0,0,0.8,10,0)"
         inkscape:connector-curvature="0" />
    </marker>
    <marker
       inkscape:stockid="DotM"
       orient="auto"
       refY="0"
       refX="0"
       id="DotM"
       style="overflow:visible">
      <path
         id="path3927"
         d="m -2.5,-1 c 0,2.76 -2.24,5 -5,5 -2.76,0 -5,-2.24 -5,-5 0,-2.76 2.24,-5 5,-5 2.76,0 5,2.24 5,5 z"
         style="fill-rule:evenodd;stroke:#000000;stroke-width:1pt"
         transform="matrix(0.4,0,0,0.4,2.96,0.4)"
         inkscape:connector-curvature="0" />
    </marker>
    <marker
       inkscape:stockid="Arrow2Send"
       orient="auto"
       refY="0"
       refX="0"
       id="Arrow2Send"
       style="overflow:visible">
      <path
         id="path3896"
         style="fill-rule:evenodd;stroke-width:0.625;stroke-linejoin:round"
         d="M 8.7185878,4.0337352 -2.2072895,0.01601326 8.7185884,-4.0017078 c -1.7454984,2.3720609 -1.7354408,5.6174519 -6e-7,8.035443 z"
         transform="matrix(-0.3,0,0,-0.3,0.69,0)"
         inkscape:connector-curvature="0" />
    </marker>
    <clipPath
       id="clipEmfPath1"
       clipPathUnits="userSpaceOnUse">
      <rect
         id="rect3101"
         height="7.82658"
         width="210.00491"
         y="-2.5920827"
         x="-70.306129" />
    </clipPath>
  </defs>
  <sodipodi:namedview
     id="base"
     pagecolor="#ffffff"
     bordercolor="#666666"
     borderopacity="1.0"
     inkscape:pageopacity="0.0"
     inkscape:pageshadow="2"
     inkscape:zoom="2"
     inkscape:cx="465.50276"
     inkscape:cy="54.247383"
     inkscape:document-units="px"
     inkscape:current-layer="layer1"
     showgrid="false"
     inkscape:snap-bbox="true"
     inkscape:window-width="1680"
     inkscape:window-height="1028"
     inkscape:window-x="1358"
     inkscape:window-y="-8"
     inkscape:window-maximized="1" />
  <metadata
     id="metadata7">
    <rdf:RDF>
      <cc:Work
         rdf:about="">
        <dc:format>image/svg+xml</dc:format>
        <dc:type
           rdf:resource="http://purl.org/dc/dcmitype/StillImage" />
        <dc:title />
      </cc:Work>
    </rdf:RDF>
  </metadata>
  <g
     inkscape:label="Layer 1"
     inkscape:groupmode="layer"
     id="layer1"
     transform="translate(0,-926.36216)">
    <text
       xml:space="preserve"
       style="font-size:40px;font-style:normal;font-weight:normal;line-height:125%;letter-spacing:0px;word-spacing:0px;fill:#000000;fill-opacity:1;stroke:none;font-family:Sans"
       x="71.918823"
       y="1049.7261"
       id="text3844"
       sodipodi:linespacing="125%"><tspan
         sodipodi:role="line"
         id="tspan3846"
         x="71.918823"
         y="1049.7261"
         style="font-size:10px;font-style:normal;font-variant:normal;font-weight:normal;font-stretch:normal;font-family:Calibri;-inkscape-font-specification:Calibri">Without Screen</tspan></text>
    <text
       xml:space="preserve"
       style="font-size:40px;font-style:normal;font-weight:normal;line-height:125%;letter-spacing:0px;word-spacing:0px;fill:#000000;fill-opacity:1;stroke:none;font-family:Sans"
       x="321.21716"
       y="1049.6724"
       id="text3844-6"
       sodipodi:linespacing="125%"><tspan
         sodipodi:role="line"
         id="tspan3846-1"
         x="321.21716"
         y="1049.6724"
         style="font-size:10px;font-style:normal;font-variant:normal;font-weight:normal;font-stretch:normal;font-family:Calibri;-inkscape-font-specification:Calibri">With Screen</tspan></text>
    <text
       xml:space="preserve"
       style="font-size:40px;font-style:normal;font-weight:normal;line-height:125%;letter-spacing:0px;word-spacing:0px;fill:#000000;fill-opacity:1;stroke:none;font-family:Sans"
       x="550.39398"
       y="1049.7029"
       id="text3844-8"
       sodipodi:linespacing="125%"><tspan
         sodipodi:role="line"
         id="tspan3846-7"
         x="550.39398"
         y="1049.7029"
         style="font-size:10px;font-style:normal;font-variant:normal;font-weight:normal;font-stretch:normal;font-family:Calibri;-inkscape-font-specification:Calibri">Partly Occluded Screen</tspan></text>
    <text
       xml:space="preserve"
       style="font-size:40px;font-style:normal;font-weight:normal;line-height:125%;letter-spacing:0px;word-spacing:0px;fill:#000000;fill-opacity:1;stroke:none;font-family:Sans"
       x="0.24696144"
       y="1000.2272"
       id="text3840-4-17"
       sodipodi:linespacing="125%"><tspan
         sodipodi:role="line"
         id="tspan3842-2-1"
         x="0.24696144"
         y="1000.2272"
         style="font-size:6px;fill:#000000;fill-opacity:1">22.5°</tspan></text>
    <text
       xml:space="preserve"
       style="font-size:59.95729065px;font-style:normal;font-weight:normal;line-height:125%;letter-spacing:0px;word-spacing:0px;fill:#000000;fill-opacity:1;stroke:none;font-family:Sans"
       x="180.59084"
       y="971.68787"
       id="text3840-3-1"
       sodipodi:linespacing="125%"
       inkscape:transform-center-y="3.2663908"
       transform="scale(1.006284,0.99375525)"><tspan
         sodipodi:role="line"
         id="tspan3842-22-5"
         x="180.59084"
         y="971.68787"
         style="font-size:6px;fill:#000000;fill-opacity:1">135°</tspan></text>
    <text
       xml:space="preserve"
       style="font-size:59.95729065px;font-style:normal;font-weight:normal;line-height:125%;letter-spacing:0px;word-spacing:0px;fill:#000000;fill-opacity:1;stroke:none;font-family:Sans"
       x="27.137316"
       y="971.55505"
       id="text3840-4-1-27"
       sodipodi:linespacing="125%"
       transform="scale(1.006284,0.99375525)"><tspan
         sodipodi:role="line"
         id="tspan3842-2-6-61"
         x="27.137316"
         y="971.55505"
         style="font-size:6px;fill:#000000;fill-opacity:1">45°</tspan></text>
    <text
       xml:space="preserve"
       style="font-size:40px;font-style:normal;font-weight:normal;line-height:125%;letter-spacing:0px;word-spacing:0px;fill:#000000;fill-opacity:1;stroke:none;font-family:Sans"
       x="147.79572"
       y="941.81158"
       id="text3840-4-1-8-4"
       sodipodi:linespacing="125%"><tspan
         sodipodi:role="line"
         id="tspan3842-2-6-5-2"
         x="147.79572"
         y="941.81158"
         style="font-size:6px;fill:#000000;fill-opacity:1">112.5°</tspan></text>
    <text
       xml:space="preserve"
       style="font-size:40px;font-style:normal;font-weight:normal;line-height:125%;letter-spacing:0px;word-spacing:0px;fill:#000000;fill-opacity:1;stroke:none;font-family:Sans"
       x="56.85994"
       y="941.94525"
       id="text3840-4-1-7-3"
       sodipodi:linespacing="125%"><tspan
         sodipodi:role="line"
         id="tspan3842-2-6-6-22"
         x="56.85994"
         y="941.94525"
         style="font-size:6px;fill:#000000;fill-opacity:1">67.5°</tspan></text>
    <text
       xml:space="preserve"
       style="font-size:40px;font-style:normal;font-weight:normal;line-height:125%;letter-spacing:0px;word-spacing:0px;fill:#000000;fill-opacity:1;stroke:none;font-family:Sans"
       x="104.78264"
       y="935.33246"
       id="text3840-4-1-7-1-1"
       sodipodi:linespacing="125%"><tspan
         sodipodi:role="line"
         id="tspan3842-2-6-6-8-68"
         x="104.78264"
         y="935.33246"
         style="font-size:6px;fill:#000000;fill-opacity:1">90°</tspan></text>
    <text
       xml:space="preserve"
       style="font-size:40px;font-style:normal;font-weight:normal;line-height:125%;letter-spacing:0px;word-spacing:0px;fill:#000000;fill-opacity:1;stroke:none;font-family:Sans"
       x="205.38168"
       y="1000.4682"
       id="text3840-3-4-5"
       sodipodi:linespacing="125%"
       inkscape:transform-center-y="2.1928711"><tspan
         sodipodi:role="line"
         id="tspan3842-22-0-7"
         x="205.38168"
         y="1000.4682"
         style="font-size:6px;fill:#000000;fill-opacity:1">157.5°</tspan></text>
    <text
       xml:space="preserve"
       style="font-size:40px;font-style:normal;font-weight:normal;line-height:125%;letter-spacing:0px;word-spacing:0px;fill:#000000;fill-opacity:1;stroke:none;font-family:Sans"
       x="-0.23864189"
       y="1039.6552"
       id="text3840-4-9-6"
       sodipodi:linespacing="125%"><tspan
         sodipodi:role="line"
         id="tspan3842-2-48-1"
         x="-0.23864189"
         y="1039.6552"
         style="font-size:6px;fill:#000000;fill-opacity:1">0°</tspan></text>
    <text
       xml:space="preserve"
       style="font-size:40px;font-style:normal;font-weight:normal;line-height:125%;letter-spacing:0px;word-spacing:0px;fill:#000000;fill-opacity:1;stroke:none;font-family:Sans"
       x="210.38667"
       y="1039.4937"
       id="text3840-4-9-8-8"
       sodipodi:linespacing="125%"><tspan
         sodipodi:role="line"
         id="tspan3842-2-48-2-92"
         x="210.38667"
         y="1039.4937"
         style="font-size:6px;fill:#000000;fill-opacity:1">180°</tspan></text>
    <path
       style="fill:none;stroke:#000000;stroke-width:0.99738389px;stroke-linecap:butt;stroke-linejoin:miter;stroke-opacity:1"
       d="m 9.0129989,1037.6585 99.0052211,0"
       id="path6684"
       inkscape:connector-curvature="0" />
    <path
       style="fill:none;stroke:#000000;stroke-width:1px;stroke-linecap:butt;stroke-linejoin:miter;stroke-opacity:1"
       d="M 16.695135,999.70857 108.53063,1037.7156 37.908338,967.44687"
       id="path6690"
       inkscape:connector-curvature="0" />
    <path
       style="fill:none;stroke:#000000;stroke-width:1px;stroke-linecap:butt;stroke-linejoin:miter;stroke-opacity:1"
       d="M 108.91543,1037.9964 70.201335,946.16087"
       id="path6692"
       inkscape:connector-curvature="0" />
    <path
       style="fill:none;stroke:#000000;stroke-width:0.99914932px;stroke-linecap:butt;stroke-linejoin:miter;stroke-opacity:1"
       d="m 108.18691,938.55357 0.0884,99.00083 38.18463,-91.50083"
       id="path6694"
       inkscape:connector-curvature="0" />
    <path
       style="fill:none;stroke:#000000;stroke-width:1px;stroke-linecap:butt;stroke-linejoin:miter;stroke-opacity:1"
       d="m 179.33996,967.24417 -70.79907,70.44553 92.63099,-38.53733"
       id="path6696"
       inkscape:connector-curvature="0" />
    <path
       style="fill:none;stroke:#000000;stroke-width:0.99780518px;stroke-linecap:butt;stroke-linejoin:miter;stroke-opacity:1"
       d="m 108.46703,1037.6564 99.0022,-0.3557"
       id="path6698"
       inkscape:connector-curvature="0" />
    <path
       sodipodi:type="arc"
       style="fill:#0092bd;fill-opacity:1;stroke:none"
       id="path6700"
       sodipodi:cx="7.75"
       sodipodi:cy="335.5"
       sodipodi:rx="21.75"
       sodipodi:ry="22.25"
       d="m 29.5,335.5 c 0,12.28834 -9.737807,22.25 -21.75,22.25 -12.0121933,0 -21.75,-9.96166 -21.75,-22.25 0,-12.28834 9.7378067,-22.25 21.75,-22.25 12.012193,0 21.75,9.96166 21.75,22.25 z"
       transform="matrix(0.06896552,0,0,0.06741573,8.0855759,1014.9627)" />
    <path
       sodipodi:type="arc"
       style="fill:#0092bd;fill-opacity:1;stroke:none"
       id="path6700-2"
       sodipodi:cx="7.75"
       sodipodi:cy="335.5"
       sodipodi:rx="21.75"
       sodipodi:ry="22.25"
       d="m 29.5,335.5 c 0,12.28834 -9.737807,22.25 -21.75,22.25 -12.0121933,0 -21.75,-9.96166 -21.75,-22.25 0,-12.28834 9.7378067,-22.25 21.75,-22.25 12.012193,0 21.75,9.96166 21.75,22.25 z"
       transform="matrix(0.06896552,0,0,0.06741573,15.994139,976.88797)" />
    <path
       sodipodi:type="arc"
       style="fill:#0092bd;fill-opacity:1;stroke:none"
       id="path6700-3"
       sodipodi:cx="7.75"
       sodipodi:cy="335.5"
       sodipodi:rx="21.75"
       sodipodi:ry="22.25"
       d="m 29.5,335.5 c 0,12.28834 -9.737807,22.25 -21.75,22.25 -12.0121933,0 -21.75,-9.96166 -21.75,-22.25 0,-12.28834 9.7378067,-22.25 21.75,-22.25 12.012193,0 21.75,9.96166 21.75,22.25 z"
       transform="matrix(0.06896552,0,0,0.06741573,37.295731,944.62617)" />
    <path
       sodipodi:type="arc"
       style="fill:#0092bd;fill-opacity:1;stroke:none"
       id="path6700-34"
       sodipodi:cx="7.75"
       sodipodi:cy="335.5"
       sodipodi:rx="21.75"
       sodipodi:ry="22.25"
       d="m 29.5,335.5 c 0,12.28834 -9.737807,22.25 -21.75,22.25 -12.0121933,0 -21.75,-9.96166 -21.75,-22.25 0,-12.28834 9.7378067,-22.25 21.75,-22.25 12.012193,0 21.75,9.96166 21.75,22.25 z"
       transform="matrix(0.06896552,0,0,0.06741573,69.557477,923.23627)"
       inkscape:transform-center-x="-12.551145"
       inkscape:transform-center-y="24.395184" />
    <path
       sodipodi:type="arc"
       style="fill:#0092bd;fill-opacity:1;stroke:none"
       id="path6700-1"
       sodipodi:cx="7.75"
       sodipodi:cy="335.5"
       sodipodi:rx="21.75"
       sodipodi:ry="22.25"
       d="m 29.5,335.5 c 0,12.28834 -9.737807,22.25 -21.75,22.25 -12.0121933,0 -21.75,-9.96166 -21.75,-22.25 0,-12.28834 9.7378067,-22.25 21.75,-22.25 12.012193,0 21.75,9.96166 21.75,22.25 z"
       transform="matrix(0.06896552,0,0,0.06741573,107.56447,915.81157)"
       inkscape:transform-center-x="24.218407"
       inkscape:transform-center-y="7.5130096" />
    <path
       sodipodi:type="arc"
       style="fill:#0092bd;fill-opacity:1;stroke:none"
       id="path6700-13"
       sodipodi:cx="7.75"
       sodipodi:cy="335.5"
       sodipodi:rx="21.75"
       sodipodi:ry="22.25"
       d="m 29.5,335.5 c 0,12.28834 -9.737807,22.25 -21.75,22.25 -12.0121933,0 -21.75,-9.96166 -21.75,-22.25 0,-12.28834 9.7378067,-22.25 21.75,-22.25 12.012193,0 21.75,9.96166 21.75,22.25 z"
       transform="matrix(0.06896552,0,0,0.06741573,146.45534,922.70587)" />
    <path
       sodipodi:type="arc"
       style="fill:#0092bd;fill-opacity:1;stroke:none"
       id="path6700-8"
       sodipodi:cx="7.75"
       sodipodi:cy="335.5"
       sodipodi:rx="21.75"
       sodipodi:ry="22.25"
       d="m 29.5,335.5 c 0,12.28834 -9.737807,22.25 -21.75,22.25 -12.0121933,0 -21.75,-9.96166 -21.75,-22.25 0,-12.28834 9.7378067,-22.25 21.75,-22.25 12.012193,0 21.75,9.96166 21.75,22.25 z"
       transform="matrix(0.06896552,0,0,0.06741573,178.98226,944.27267)" />
    <path
       sodipodi:type="arc"
       style="fill:#0092bd;fill-opacity:1;stroke:none"
       id="path6700-7"
       sodipodi:cx="7.75"
       sodipodi:cy="335.5"
       sodipodi:rx="21.75"
       sodipodi:ry="22.25"
       d="m 29.5,335.5 c 0,12.28834 -9.737807,22.25 -21.75,22.25 -12.0121933,0 -21.75,-9.96166 -21.75,-22.25 0,-12.28834 9.7378067,-22.25 21.75,-22.25 12.012193,0 21.75,9.96166 21.75,22.25 z"
       transform="matrix(0.06896552,0,0,0.06741573,200.90257,976.18077)" />
    <path
       sodipodi:type="arc"
       style="fill:#0092bd;fill-opacity:1;stroke:none"
       id="path6700-4"
       sodipodi:cx="7.75"
       sodipodi:cy="335.5"
       sodipodi:rx="21.75"
       sodipodi:ry="22.25"
       d="m 29.5,335.5 c 0,12.28834 -9.737807,22.25 -21.75,22.25 -12.0121933,0 -21.75,-9.96166 -21.75,-22.25 0,-12.28834 9.7378067,-22.25 21.75,-22.25 12.012193,0 21.75,9.96166 21.75,22.25 z"
       transform="matrix(0.06896552,0,0,0.06741573,207.44331,1014.3647)" />
    <path
       style="fill:none;stroke:#0092bd;stroke-width:1px;stroke-linecap:butt;stroke-linejoin:miter;stroke-opacity:1"
       d="m 208.15456,1037.2477 -6.45235,-38.53727 -22.09708,-32.08497 -32.79208,-21.56675 -38.7141,-6.98268 -38.095378,7.42462 -32.08497,21.65514 -21.478369,32.26175 -7.8665631,38.18376"
       id="path6771"
       inkscape:connector-curvature="0" />
    <text
       xml:space="preserve"
       style="font-size:40px;font-style:normal;font-weight:normal;line-height:125%;letter-spacing:0px;word-spacing:0px;fill:#000000;fill-opacity:1;stroke:none;font-family:Sans"
       x="242.21721"
       y="1000.4214"
       id="text3840-4-17-2"
       sodipodi:linespacing="125%"><tspan
         sodipodi:role="line"
         id="tspan3842-2-1-7"
         x="242.21721"
         y="1000.4214"
         style="font-size:6px;fill:#000000;fill-opacity:1">22.5°</tspan></text>
    <text
       xml:space="preserve"
       style="font-size:59.95729065px;font-style:normal;font-weight:normal;line-height:125%;letter-spacing:0px;word-spacing:0px;fill:#000000;fill-opacity:1;stroke:none;font-family:Sans"
       x="421.05008"
       y="971.8833"
       id="text3840-3-1-7"
       sodipodi:linespacing="125%"
       inkscape:transform-center-y="3.2663908"
       transform="scale(1.006284,0.99375525)"><tspan
         sodipodi:role="line"
         id="tspan3842-22-5-9"
         x="421.05008"
         y="971.8833"
         style="font-size:6px;fill:#000000;fill-opacity:1">135°</tspan></text>
    <text
       xml:space="preserve"
       style="font-size:59.95729065px;font-style:normal;font-weight:normal;line-height:125%;letter-spacing:0px;word-spacing:0px;fill:#000000;fill-opacity:1;stroke:none;font-family:Sans"
       x="267.59656"
       y="971.75049"
       id="text3840-4-1-27-3"
       sodipodi:linespacing="125%"
       transform="scale(1.006284,0.99375525)"><tspan
         sodipodi:role="line"
         id="tspan3842-2-6-61-1"
         x="267.59656"
         y="971.75049"
         style="font-size:6px;fill:#000000;fill-opacity:1">45°</tspan></text>
    <text
       xml:space="preserve"
       style="font-size:40px;font-style:normal;font-weight:normal;line-height:125%;letter-spacing:0px;word-spacing:0px;fill:#000000;fill-opacity:1;stroke:none;font-family:Sans"
       x="389.76596"
       y="942.0058"
       id="text3840-4-1-8-4-9"
       sodipodi:linespacing="125%"><tspan
         sodipodi:role="line"
         id="tspan3842-2-6-5-2-8"
         x="389.76596"
         y="942.0058"
         style="font-size:6px;fill:#000000;fill-opacity:1">112.5°</tspan></text>
    <text
       xml:space="preserve"
       style="font-size:40px;font-style:normal;font-weight:normal;line-height:125%;letter-spacing:0px;word-spacing:0px;fill:#000000;fill-opacity:1;stroke:none;font-family:Sans"
       x="298.83017"
       y="942.13947"
       id="text3840-4-1-7-3-6"
       sodipodi:linespacing="125%"><tspan
         sodipodi:role="line"
         id="tspan3842-2-6-6-22-5"
         x="298.83017"
         y="942.13947"
         style="font-size:6px;fill:#000000;fill-opacity:1">67.5°</tspan></text>
    <text
       xml:space="preserve"
       style="font-size:40px;font-style:normal;font-weight:normal;line-height:125%;letter-spacing:0px;word-spacing:0px;fill:#000000;fill-opacity:1;stroke:none;font-family:Sans"
       x="346.75287"
       y="935.52667"
       id="text3840-4-1-7-1-1-0"
       sodipodi:linespacing="125%"><tspan
         sodipodi:role="line"
         id="tspan3842-2-6-6-8-68-2"
         x="346.75287"
         y="935.52667"
         style="font-size:6px;fill:#000000;fill-opacity:1">90°</tspan></text>
    <text
       xml:space="preserve"
       style="font-size:40px;font-style:normal;font-weight:normal;line-height:125%;letter-spacing:0px;word-spacing:0px;fill:#000000;fill-opacity:1;stroke:none;font-family:Sans"
       x="447.35193"
       y="1000.6624"
       id="text3840-3-4-5-8"
       sodipodi:linespacing="125%"
       inkscape:transform-center-y="2.1928711"><tspan
         sodipodi:role="line"
         id="tspan3842-22-0-7-6"
         x="447.35193"
         y="1000.6624"
         style="font-size:6px;fill:#000000;fill-opacity:1">157.5°</tspan></text>
    <text
       xml:space="preserve"
       style="font-size:40px;font-style:normal;font-weight:normal;line-height:125%;letter-spacing:0px;word-spacing:0px;fill:#000000;fill-opacity:1;stroke:none;font-family:Sans"
       x="241.7316"
       y="1039.5994"
       id="text3840-4-9-6-0"
       sodipodi:linespacing="125%"><tspan
         sodipodi:role="line"
         id="tspan3842-2-48-1-2"
         x="241.7316"
         y="1039.5994"
         style="font-size:6px;fill:#000000;fill-opacity:1">0°</tspan></text>
    <text
       xml:space="preserve"
       style="font-size:40px;font-style:normal;font-weight:normal;line-height:125%;letter-spacing:0px;word-spacing:0px;fill:#000000;fill-opacity:1;stroke:none;font-family:Sans"
       x="452.35693"
       y="1039.6879"
       id="text3840-4-9-8-8-4"
       sodipodi:linespacing="125%"><tspan
         sodipodi:role="line"
         id="tspan3842-2-48-2-92-8"
         x="452.35693"
         y="1039.6879"
         style="font-size:6px;fill:#000000;fill-opacity:1">180°</tspan></text>
    <path
       style="fill:none;stroke:#000000;stroke-width:0.99738389px;stroke-linecap:butt;stroke-linejoin:miter;stroke-opacity:1"
       d="m 250.98324,1037.8527 99.00522,0"
       id="path6684-6"
       inkscape:connector-curvature="0" />
    <path
       style="fill:none;stroke:#000000;stroke-width:1px;stroke-linecap:butt;stroke-linejoin:miter;stroke-opacity:1"
       d="m 258.66538,999.90277 91.83549,38.00703 -70.62229,-70.26873"
       id="path6690-5"
       inkscape:connector-curvature="0" />
    <path
       style="fill:none;stroke:#000000;stroke-width:1px;stroke-linecap:butt;stroke-linejoin:miter;stroke-opacity:1"
       d="M 350.88567,1038.1906 312.17158,946.35507"
       id="path6692-0"
       inkscape:connector-curvature="0" />
    <path
       style="fill:none;stroke:#000000;stroke-width:0.99914932px;stroke-linecap:butt;stroke-linejoin:miter;stroke-opacity:1"
       d="m 350.15715,938.74777 0.0884,99.00083 38.18463,-91.50083"
       id="path6694-9"
       inkscape:connector-curvature="0" />
    <path
       style="fill:none;stroke:#000000;stroke-width:1px;stroke-linecap:butt;stroke-linejoin:miter;stroke-opacity:1"
       d="m 421.3102,967.43837 -70.79907,70.44553 92.63099,-38.53733"
       id="path6696-0"
       inkscape:connector-curvature="0" />
    <path
       style="fill:none;stroke:#000000;stroke-width:0.99780518px;stroke-linecap:butt;stroke-linejoin:miter;stroke-opacity:1"
       d="m 350.43727,1037.8506 99.0022,-0.3557"
       id="path6698-0"
       inkscape:connector-curvature="0" />
    <path
       sodipodi:type="arc"
       style="fill:#0092bd;fill-opacity:1;stroke:none"
       id="path6700-6"
       sodipodi:cx="7.75"
       sodipodi:cy="335.5"
       sodipodi:rx="21.75"
       sodipodi:ry="22.25"
       d="m 29.5,335.5 c 0,12.28834 -9.737807,22.25 -21.75,22.25 -12.0121933,0 -21.75,-9.96166 -21.75,-22.25 0,-12.28834 9.7378067,-22.25 21.75,-22.25 12.012193,0 21.75,9.96166 21.75,22.25 z"
       transform="matrix(0.06896552,0,0,0.06741573,250.05582,1015.1569)" />
    <path
       sodipodi:type="arc"
       style="fill:#0092bd;fill-opacity:1;stroke:none"
       id="path6700-2-1"
       sodipodi:cx="7.75"
       sodipodi:cy="335.5"
       sodipodi:rx="21.75"
       sodipodi:ry="22.25"
       d="m 29.5,335.5 c 0,12.28834 -9.737807,22.25 -21.75,22.25 -12.0121933,0 -21.75,-9.96166 -21.75,-22.25 0,-12.28834 9.7378067,-22.25 21.75,-22.25 12.012193,0 21.75,9.96166 21.75,22.25 z"
       transform="matrix(0.06896552,0,0,0.06741573,257.96438,977.08217)" />
    <path
       sodipodi:type="arc"
       style="fill:#0092bd;fill-opacity:1;stroke:none"
       id="path6700-3-3"
       sodipodi:cx="7.75"
       sodipodi:cy="335.5"
       sodipodi:rx="21.75"
       sodipodi:ry="22.25"
       d="m 29.5,335.5 c 0,12.28834 -9.737807,22.25 -21.75,22.25 -12.0121933,0 -21.75,-9.96166 -21.75,-22.25 0,-12.28834 9.7378067,-22.25 21.75,-22.25 12.012193,0 21.75,9.96166 21.75,22.25 z"
       transform="matrix(0.06896552,0,0,0.06741573,285.76597,951.07037)" />
    <path
       sodipodi:type="arc"
       style="fill:#0092bd;fill-opacity:1;stroke:none"
       id="path6700-34-8"
       sodipodi:cx="7.75"
       sodipodi:cy="335.5"
       sodipodi:rx="21.75"
       sodipodi:ry="22.25"
       d="m 29.5,335.5 c 0,12.28834 -9.737807,22.25 -21.75,22.25 -12.0121933,0 -21.75,-9.96166 -21.75,-22.25 0,-12.28834 9.7378067,-22.25 21.75,-22.25 12.012193,0 21.75,9.96166 21.75,22.25 z"
       transform="matrix(0.06896552,0,0,0.06741573,319.02772,941.18047)"
       inkscape:transform-center-x="-12.551145"
       inkscape:transform-center-y="24.395184" />
    <path
       sodipodi:type="arc"
       style="fill:#0092bd;fill-opacity:1;stroke:none"
       id="path6700-1-9"
       sodipodi:cx="7.75"
       sodipodi:cy="335.5"
       sodipodi:rx="21.75"
       sodipodi:ry="22.25"
       d="m 29.5,335.5 c 0,12.28834 -9.737807,22.25 -21.75,22.25 -12.0121933,0 -21.75,-9.96166 -21.75,-22.25 0,-12.28834 9.7378067,-22.25 21.75,-22.25 12.012193,0 21.75,9.96166 21.75,22.25 z"
       transform="matrix(0.06896552,0,0,0.06741573,349.53471,916.00577)"
       inkscape:transform-center-x="24.218407"
       inkscape:transform-center-y="7.5130096" />
    <path
       sodipodi:type="arc"
       style="fill:#0092bd;fill-opacity:1;stroke:none"
       id="path6700-13-3"
       sodipodi:cx="7.75"
       sodipodi:cy="335.5"
       sodipodi:rx="21.75"
       sodipodi:ry="22.25"
       d="m 29.5,335.5 c 0,12.28834 -9.737807,22.25 -21.75,22.25 -12.0121933,0 -21.75,-9.96166 -21.75,-22.25 0,-12.28834 9.7378067,-22.25 21.75,-22.25 12.012193,0 21.75,9.96166 21.75,22.25 z"
       transform="matrix(0.06896552,0,0,0.06741573,388.42558,922.90007)" />
    <path
       sodipodi:type="arc"
       style="fill:#0092bd;fill-opacity:1;stroke:none"
       id="path6700-8-4"
       sodipodi:cx="7.75"
       sodipodi:cy="335.5"
       sodipodi:rx="21.75"
       sodipodi:ry="22.25"
       d="m 29.5,335.5 c 0,12.28834 -9.737807,22.25 -21.75,22.25 -12.0121933,0 -21.75,-9.96166 -21.75,-22.25 0,-12.28834 9.7378067,-22.25 21.75,-22.25 12.012193,0 21.75,9.96166 21.75,22.25 z"
       transform="matrix(0.06896552,0,0,0.06741573,414.0775,951.46687)" />
    <path
       sodipodi:type="arc"
       style="fill:#0092bd;fill-opacity:1;stroke:none"
       id="path6700-7-4"
       sodipodi:cx="7.75"
       sodipodi:cy="335.5"
       sodipodi:rx="21.75"
       sodipodi:ry="22.25"
       d="m 29.5,335.5 c 0,12.28834 -9.737807,22.25 -21.75,22.25 -12.0121933,0 -21.75,-9.96166 -21.75,-22.25 0,-12.28834 9.7378067,-22.25 21.75,-22.25 12.012193,0 21.75,9.96166 21.75,22.25 z"
       transform="matrix(0.06896552,0,0,0.06741573,442.87281,976.37497)" />
    <path
       sodipodi:type="arc"
       style="fill:#0092bd;fill-opacity:1;stroke:none"
       id="path6700-4-6"
       sodipodi:cx="7.75"
       sodipodi:cy="335.5"
       sodipodi:rx="21.75"
       sodipodi:ry="22.25"
       d="m 29.5,335.5 c 0,12.28834 -9.737807,22.25 -21.75,22.25 -12.0121933,0 -21.75,-9.96166 -21.75,-22.25 0,-12.28834 9.7378067,-22.25 21.75,-22.25 12.012193,0 21.75,9.96166 21.75,22.25 z"
       transform="matrix(0.06896552,0,0,0.06741573,449.41355,1014.5589)" />
    <path
       style="fill:none;stroke:#0092bd;stroke-width:1px;stroke-linecap:butt;stroke-linejoin:miter;stroke-opacity:1"
       d="m 250.37006,1037.7056 8,-38.12497 27.875,-25.875 33.375,-9.875 30.375,-25.625 38.875,7.125 25.5,28.625 29.125,25 6.5,38.37497"
       id="path6902"
       inkscape:connector-curvature="0"
       sodipodi:nodetypes="ccccccccc" />
    <text
       xml:space="preserve"
       style="font-size:40px;font-style:normal;font-weight:normal;line-height:125%;letter-spacing:0px;word-spacing:0px;fill:#000000;fill-opacity:1;stroke:none;font-family:Sans"
       x="486.90823"
       y="1000.0235"
       id="text3840-4-17-5"
       sodipodi:linespacing="125%"><tspan
         sodipodi:role="line"
         id="tspan3842-2-1-4"
         x="486.90823"
         y="1000.0235"
         style="font-size:6px;fill:#000000;fill-opacity:1">22.5°</tspan></text>
    <text
       xml:space="preserve"
       style="font-size:59.95729065px;font-style:normal;font-weight:normal;line-height:125%;letter-spacing:0px;word-spacing:0px;fill:#000000;fill-opacity:1;stroke:none;font-family:Sans"
       x="664.21222"
       y="971.48285"
       id="text3840-3-1-1"
       sodipodi:linespacing="125%"
       inkscape:transform-center-y="3.2663908"
       transform="scale(1.006284,0.99375525)"><tspan
         sodipodi:role="line"
         id="tspan3842-22-5-2"
         x="664.21222"
         y="971.48285"
         style="font-size:6px;fill:#000000;fill-opacity:1">135°</tspan></text>
    <text
       xml:space="preserve"
       style="font-size:59.95729065px;font-style:normal;font-weight:normal;line-height:125%;letter-spacing:0px;word-spacing:0px;fill:#000000;fill-opacity:1;stroke:none;font-family:Sans"
       x="510.7598"
       y="971.35004"
       id="text3840-4-1-27-0"
       sodipodi:linespacing="125%"
       transform="scale(1.006284,0.99375525)"><tspan
         sodipodi:role="line"
         id="tspan3842-2-6-61-0"
         x="510.7598"
         y="971.35004"
         style="font-size:6px;fill:#000000;fill-opacity:1">45°</tspan></text>
    <text
       xml:space="preserve"
       style="font-size:40px;font-style:normal;font-weight:normal;line-height:125%;letter-spacing:0px;word-spacing:0px;fill:#000000;fill-opacity:1;stroke:none;font-family:Sans"
       x="634.45703"
       y="941.60785"
       id="text3840-4-1-8-4-1"
       sodipodi:linespacing="125%"><tspan
         sodipodi:role="line"
         id="tspan3842-2-6-5-2-4"
         x="634.45703"
         y="941.60785"
         style="font-size:6px;fill:#000000;fill-opacity:1">112.5°</tspan></text>
    <text
       xml:space="preserve"
       style="font-size:40px;font-style:normal;font-weight:normal;line-height:125%;letter-spacing:0px;word-spacing:0px;fill:#000000;fill-opacity:1;stroke:none;font-family:Sans"
       x="543.52124"
       y="941.74152"
       id="text3840-4-1-7-3-60"
       sodipodi:linespacing="125%"><tspan
         sodipodi:role="line"
         id="tspan3842-2-6-6-22-7"
         x="543.52124"
         y="941.74152"
         style="font-size:6px;fill:#000000;fill-opacity:1">67.5°</tspan></text>
    <text
       xml:space="preserve"
       style="font-size:40px;font-style:normal;font-weight:normal;line-height:125%;letter-spacing:0px;word-spacing:0px;fill:#000000;fill-opacity:1;stroke:none;font-family:Sans"
       x="591.44391"
       y="935.12872"
       id="text3840-4-1-7-1-1-1"
       sodipodi:linespacing="125%"><tspan
         sodipodi:role="line"
         id="tspan3842-2-6-6-8-68-7"
         x="591.44391"
         y="935.12872"
         style="font-size:6px;fill:#000000;fill-opacity:1">90°</tspan></text>
    <text
       xml:space="preserve"
       style="font-size:40px;font-style:normal;font-weight:normal;line-height:125%;letter-spacing:0px;word-spacing:0px;fill:#000000;fill-opacity:1;stroke:none;font-family:Sans"
       x="692.04297"
       y="1000.2645"
       id="text3840-3-4-5-7"
       sodipodi:linespacing="125%"
       inkscape:transform-center-y="2.1928711"><tspan
         sodipodi:role="line"
         id="tspan3842-22-0-7-7"
         x="692.04297"
         y="1000.2645"
         style="font-size:6px;fill:#000000;fill-opacity:1">157.5°</tspan></text>
    <text
       xml:space="preserve"
       style="font-size:40px;font-style:normal;font-weight:normal;line-height:125%;letter-spacing:0px;word-spacing:0px;fill:#000000;fill-opacity:1;stroke:none;font-family:Sans"
       x="486.42264"
       y="1039.4514"
       id="text3840-4-9-6-7"
       sodipodi:linespacing="125%"><tspan
         sodipodi:role="line"
         id="tspan3842-2-48-1-3"
         x="486.42264"
         y="1039.4514"
         style="font-size:6px;fill:#000000;fill-opacity:1">0°</tspan></text>
    <text
       xml:space="preserve"
       style="font-size:40px;font-style:normal;font-weight:normal;line-height:125%;letter-spacing:0px;word-spacing:0px;fill:#000000;fill-opacity:1;stroke:none;font-family:Sans"
       x="697.04797"
       y="1039.2899"
       id="text3840-4-9-8-8-3"
       sodipodi:linespacing="125%"><tspan
         sodipodi:role="line"
         id="tspan3842-2-48-2-92-5"
         x="697.04797"
         y="1039.2899"
         style="font-size:6px;fill:#000000;fill-opacity:1">180°</tspan></text>
    <path
       style="fill:none;stroke:#000000;stroke-width:0.99738389px;stroke-linecap:butt;stroke-linejoin:miter;stroke-opacity:1"
       d="m 495.67428,1037.4547 99.00522,0"
       id="path6684-9"
       inkscape:connector-curvature="0" />
    <path
       style="fill:none;stroke:#000000;stroke-width:1px;stroke-linecap:butt;stroke-linejoin:miter;stroke-opacity:1"
       d="m 503.35641,999.50477 91.8355,38.00703 -70.62229,-70.26873"
       id="path6690-9"
       inkscape:connector-curvature="0" />
    <path
       style="fill:none;stroke:#000000;stroke-width:1px;stroke-linecap:butt;stroke-linejoin:miter;stroke-opacity:1"
       d="m 595.57671,1037.7926 -38.7141,-91.83553"
       id="path6692-8"
       inkscape:connector-curvature="0" />
    <path
       style="fill:none;stroke:#000000;stroke-width:0.99914932px;stroke-linecap:butt;stroke-linejoin:miter;stroke-opacity:1"
       d="m 594.84819,938.34977 0.0884,99.00083 38.18463,-91.50083"
       id="path6694-1"
       inkscape:connector-curvature="0" />
    <path
       style="fill:none;stroke:#000000;stroke-width:1px;stroke-linecap:butt;stroke-linejoin:miter;stroke-opacity:1"
       d="m 666.00124,967.04037 -70.79907,70.44553 92.63099,-38.53733"
       id="path6696-8"
       inkscape:connector-curvature="0" />
    <path
       style="fill:none;stroke:#000000;stroke-width:0.99780518px;stroke-linecap:butt;stroke-linejoin:miter;stroke-opacity:1"
       d="m 595.12831,1037.4526 99.0022,-0.3557"
       id="path6698-2"
       inkscape:connector-curvature="0" />
    <path
       sodipodi:type="arc"
       style="fill:#0092bd;fill-opacity:1;stroke:none"
       id="path6700-66"
       sodipodi:cx="7.75"
       sodipodi:cy="335.5"
       sodipodi:rx="21.75"
       sodipodi:ry="22.25"
       d="m 29.5,335.5 c 0,12.28834 -9.737807,22.25 -21.75,22.25 -12.0121933,0 -21.75,-9.96166 -21.75,-22.25 0,-12.28834 9.7378067,-22.25 21.75,-22.25 12.012193,0 21.75,9.96166 21.75,22.25 z"
       transform="matrix(0.06896552,0,0,0.06741573,494.74685,1014.7589)" />
    <path
       sodipodi:type="arc"
       style="fill:#0092bd;fill-opacity:1;stroke:none"
       id="path6700-2-0"
       sodipodi:cx="7.75"
       sodipodi:cy="335.5"
       sodipodi:rx="21.75"
       sodipodi:ry="22.25"
       d="m 29.5,335.5 c 0,12.28834 -9.737807,22.25 -21.75,22.25 -12.0121933,0 -21.75,-9.96166 -21.75,-22.25 0,-12.28834 9.7378067,-22.25 21.75,-22.25 12.012193,0 21.75,9.96166 21.75,22.25 z"
       transform="matrix(0.06896552,0,0,0.06741573,502.65542,976.68417)" />
    <path
       sodipodi:type="arc"
       style="fill:#0092bd;fill-opacity:1;stroke:none"
       id="path6700-3-38"
       sodipodi:cx="7.75"
       sodipodi:cy="335.5"
       sodipodi:rx="21.75"
       sodipodi:ry="22.25"
       d="m 29.5,335.5 c 0,12.28834 -9.737807,22.25 -21.75,22.25 -12.0121933,0 -21.75,-9.96166 -21.75,-22.25 0,-12.28834 9.7378067,-22.25 21.75,-22.25 12.012193,0 21.75,9.96166 21.75,22.25 z"
       transform="matrix(0.06896552,0,0,0.06741573,545.78894,966.10877)" />
    <path
       sodipodi:type="arc"
       style="fill:#0092bd;fill-opacity:1;stroke:none"
       id="path6700-34-0"
       sodipodi:cx="7.75"
       sodipodi:cy="335.5"
       sodipodi:rx="21.75"
       sodipodi:ry="22.25"
       d="m 29.5,335.5 c 0,12.28834 -9.737807,22.25 -21.75,22.25 -12.0121933,0 -21.75,-9.96166 -21.75,-22.25 0,-12.28834 9.7378067,-22.25 21.75,-22.25 12.012193,0 21.75,9.96166 21.75,22.25 z"
       transform="matrix(0.06896552,0,0,0.06741573,579.02295,976.94937)"
       inkscape:transform-center-x="-12.551145"
       inkscape:transform-center-y="24.395184" />
    <path
       sodipodi:type="arc"
       style="fill:#0092bd;fill-opacity:1;stroke:none"
       id="path6700-1-1"
       sodipodi:cx="7.75"
       sodipodi:cy="335.5"
       sodipodi:rx="21.75"
       sodipodi:ry="22.25"
       d="m 29.5,335.5 c 0,12.28834 -9.737807,22.25 -21.75,22.25 -12.0121933,0 -21.75,-9.96166 -21.75,-22.25 0,-12.28834 9.7378067,-22.25 21.75,-22.25 12.012193,0 21.75,9.96166 21.75,22.25 z"
       transform="matrix(0.06896552,0,0,0.06741573,594.22575,915.60777)"
       inkscape:transform-center-x="24.218407"
       inkscape:transform-center-y="7.5130096" />
    <path
       sodipodi:type="arc"
       style="fill:#0092bd;fill-opacity:1;stroke:none"
       id="path6700-13-2"
       sodipodi:cx="7.75"
       sodipodi:cy="335.5"
       sodipodi:rx="21.75"
       sodipodi:ry="22.25"
       d="m 29.5,335.5 c 0,12.28834 -9.737807,22.25 -21.75,22.25 -12.0121933,0 -21.75,-9.96166 -21.75,-22.25 0,-12.28834 9.7378067,-22.25 21.75,-22.25 12.012193,0 21.75,9.96166 21.75,22.25 z"
       transform="matrix(0.06896552,0,0,0.06741573,625.692,940.35647)" />
    <path
       sodipodi:type="arc"
       style="fill:#0092bd;fill-opacity:1;stroke:none"
       id="path6700-8-5"
       sodipodi:cx="7.75"
       sodipodi:cy="335.5"
       sodipodi:rx="21.75"
       sodipodi:ry="22.25"
       d="m 29.5,335.5 c 0,12.28834 -9.737807,22.25 -21.75,22.25 -12.0121933,0 -21.75,-9.96166 -21.75,-22.25 0,-12.28834 9.7378067,-22.25 21.75,-22.25 12.012193,0 21.75,9.96166 21.75,22.25 z"
       transform="matrix(0.06896552,0,0,0.06741573,665.64354,944.06887)" />
    <path
       sodipodi:type="arc"
       style="fill:#0092bd;fill-opacity:1;stroke:none"
       id="path6700-7-0"
       sodipodi:cx="7.75"
       sodipodi:cy="335.5"
       sodipodi:rx="21.75"
       sodipodi:ry="22.25"
       d="m 29.5,335.5 c 0,12.28834 -9.737807,22.25 -21.75,22.25 -12.0121933,0 -21.75,-9.96166 -21.75,-22.25 0,-12.28834 9.7378067,-22.25 21.75,-22.25 12.012193,0 21.75,9.96166 21.75,22.25 z"
       transform="matrix(0.06896552,0,0,0.06741573,687.56385,975.97697)" />
    <path
       sodipodi:type="arc"
       style="fill:#0092bd;fill-opacity:1;stroke:none"
       id="path6700-4-9"
       sodipodi:cx="7.75"
       sodipodi:cy="335.5"
       sodipodi:rx="21.75"
       sodipodi:ry="22.25"
       d="m 29.5,335.5 c 0,12.28834 -9.737807,22.25 -21.75,22.25 -12.0121933,0 -21.75,-9.96166 -21.75,-22.25 0,-12.28834 9.7378067,-22.25 21.75,-22.25 12.012193,0 21.75,9.96166 21.75,22.25 z"
       transform="matrix(0.06896552,0,0,0.06741573,694.10459,1014.1609)" />
    <path
       style="fill:none;stroke:#0092bd;stroke-width:1px;stroke-linecap:butt;stroke-linejoin:miter;stroke-opacity:1"
       d="m 694.81584,1037.044 -6.45235,-38.53733 -22.09708,-32.085 -40.39348,-3.1819 -31.1127,-25.3675 -15.29119,62.04863 -33.14563,-11.22543 -43.2219,10.5183 -7.86656,38.18383"
       id="path6771-4"
       inkscape:connector-curvature="0"
       sodipodi:nodetypes="ccccccccc" />
  </g>
</svg>
