<?xml version="1.0" encoding="UTF-8" standalone="no"?>
<!-- Created with Inkscape (http://www.inkscape.org/) -->

<svg
   xmlns:dc="http://purl.org/dc/elements/1.1/"
   xmlns:cc="http://creativecommons.org/ns#"
   xmlns:rdf="http://www.w3.org/1999/02/22-rdf-syntax-ns#"
   xmlns:svg="http://www.w3.org/2000/svg"
   xmlns="http://www.w3.org/2000/svg"
   xmlns:sodipodi="http://sodipodi.sourceforge.net/DTD/sodipodi-0.dtd"
   xmlns:inkscape="http://www.inkscape.org/namespaces/inkscape"
   width="2787.9006"
   height="1459.9398"
   id="svg2"
   version="1.1"
   inkscape:version="0.48.4 r9939"
   sodipodi:docname="hand-tPad.svg">
  <defs
     id="defs4" />
  <sodipodi:namedview
     id="base"
     pagecolor="#ffffff"
     bordercolor="#666666"
     borderopacity="1.0"
     inkscape:pageopacity="0.0"
     inkscape:pageshadow="2"
     inkscape:zoom="0.45956826"
     inkscape:cx="1813.6732"
     inkscape:cy="859.66956"
     inkscape:document-units="px"
     inkscape:current-layer="layer1"
     showgrid="false"
     fit-margin-top="0"
     fit-margin-left="0"
     fit-margin-right="0"
     fit-margin-bottom="0"
     inkscape:window-width="1618"
     inkscape:window-height="1028"
     inkscape:window-x="1358"
     inkscape:window-y="-8"
     inkscape:window-maximized="1" />
  <metadata
     id="metadata7">
    <rdf:RDF>
      <cc:Work
         rdf:about="">
        <dc:format>image/svg+xml</dc:format>
        <dc:type
           rdf:resource="http://purl.org/dc/dcmitype/StillImage" />
        <dc:title></dc:title>
      </cc:Work>
    </rdf:RDF>
  </metadata>
  <g
     inkscape:label="Layer 1"
     inkscape:groupmode="layer"
     id="layer1"
     transform="translate(742.42151,331.50619)">
    <path
       style="fill:none;stroke:#ffffff;stroke-width:15;stroke-linecap:butt;stroke-linejoin:miter;stroke-miterlimit:4;stroke-opacity:1;stroke-dasharray:none"
       d="m 1941.5132,98.77818 -38.3858,34.34519 24.2437,42.4264 2.0203,68.69038 -6.061,101.01525 -26.2639,62.62946 -46.467,84.85281 -50.5077,64.64977 -46.467,60.60915 -40.4061,16.16244 0,86.87312 18.1828,44.44671 44.4467,48.48732 68.6903,46.46702 52.528,32.32488 54.5482,50.50763 c -41.772,-46.45061 221.2966,-969.468324 -10.1015,-844.48753 z"
       id="path2996"
       inkscape:connector-curvature="0"
       sodipodi:nodetypes="ccccccccccccccccc" />
    <path
       style="fill:none;stroke:#ffffff;stroke-width:15;stroke-linecap:butt;stroke-linejoin:miter;stroke-miterlimit:4;stroke-opacity:1;stroke-dasharray:none"
       d="m 1903.1274,133.12337 -361.6346,-105.055868 -34.3452,16.162441 -16.1624,26.263966 46.467,8.08122 2.0203,-46.467017 2.0203,48.487323 2.0203,92.934035 -8.0812,46.46702 -30.3046,135.36044 -30.3046,82.83251 -44.4467,98.99494 -24.2437,24.24367 -32.3248,2.0203 8.0812,16.16244 66.67,2.02031 90.9138,0 56.5685,18.18274 82.8325,22.22336 34.3452,12.12183"
       id="path2998"
       inkscape:connector-curvature="0" />
    <path
       style="fill:none;stroke:#ffffff;stroke-width:5;stroke-linecap:butt;stroke-linejoin:miter;stroke-miterlimit:4;stroke-opacity:1;stroke-dasharray:none"
       d="m 509.28572,883.79075 0,0 -2.85715,-0.71428 -10.17857,-3.75 -14.82143,-14.46429 -5.53571,-14.64285 1.07143,-31.42858 9.64285,-16.25 12.85715,-6.07143 19.46428,-5.35714 18.75,-1.42857 15,3.57143 9.64286,8.92857 7.5,10.17857 10,16.96429 0.89286,6.60714 -0.71429,9.28572 -6.07143,7.67857 -1.07143,1.42857"
       id="path3006"
       inkscape:connector-curvature="0" />
    <path
       style="fill:none;stroke:#ffffff;stroke-width:5;stroke-linecap:butt;stroke-linejoin:miter;stroke-miterlimit:4;stroke-opacity:1;stroke-dasharray:none"
       d="m 242.94169,-123.20284 -5.05077,11.86929 -9.09137,5.05076 -10.85914,8.081222 -14.39467,4.798225 -20.20305,4.545686 -11.8693,-4.293148 -10.10152,-4.293148 -7.57614,-9.848987 -2.02031,-15.15229"
       id="path3008"
       inkscape:connector-curvature="0" />
    <path
       style="fill:none;stroke:#ffffff;stroke-width:5;stroke-linecap:butt;stroke-linejoin:miter;stroke-miterlimit:4;stroke-opacity:1;stroke-dasharray:none"
       d="m 269.28571,-180.13782 -3.21428,9.64286 -9.28572,9.64285 -15.53571,8.39286 -9.82143,1.78572"
       id="path3010"
       inkscape:connector-curvature="0" />
    <path
       style="fill:none;stroke:#ffffff;stroke-width:8;stroke-linecap:butt;stroke-linejoin:miter;stroke-miterlimit:4;stroke-opacity:1;stroke-dasharray:none"
       d="m 1531.3913,80.595435 -34.3452,-4.040611 -46.467,-6.060915 -50.5077,-18.182746 -68.6903,-46.4670168 -88.8935,-60.6091532 -133.3401,-56.568543 -131.31984,-38.3858 -44.44671,-24.24366 -90.91373,-44.44671 -96.97464,-74.75129 -42.42641,-30.30457 -36.36549,-4.04061 -107.07617,0 -56.56854,2.0203 -44.44671,16.16244 -28.28428,20.20305 -8.08122,6.06092 117.1777,-6.06092 32.32488,6.06092 38.3858,16.16244 26.26396,18.18274 44.44672,34.34519 38.38579,32.32488 32.32488,28.28427 30.30458,18.18275 44.44671,12.12183 22.22336,2.02031 -2.02031,-2.02031"
       id="path3000"
       inkscape:connector-curvature="0" />
    <path
       style="fill:none;stroke:#ffffff;stroke-width:8;stroke-linecap:butt;stroke-linejoin:miter;stroke-miterlimit:4;stroke-opacity:1;stroke-dasharray:none"
       d="m 422.24376,-283.05948 -50.50762,16.16244 -42.42641,14.14213 -22.22336,22.22336 -18.18274,30.30458 -34.34519,32.32488 -24.24366,14.14213 -4.04061,26.26397 66.67007,12.12183 42.4264,-2.0203 20.20306,-14.14214 50.50762,10.10153 70.71068,10.10152 20.20305,0 40.4061,56.568543 54.54824,40.406102 72.73098,26.263966 60.60916,16.162441 16.16244,0"
       id="path3002"
       inkscape:connector-curvature="0" />
    <path
       style="fill:none;stroke:#ffffff;stroke-width:8;stroke-linecap:butt;stroke-linejoin:miter;stroke-miterlimit:4;stroke-opacity:1;stroke-dasharray:none"
       d="m 222.23356,-129.51629 -36.36549,-8.08123 -30.30458,10.10153 -20.20305,26.26397 10.10153,32.324878 24.24366,28.284271 50.50762,34.3451866 62.62946,20.2030514 52.52793,36.365491 84.85282,44.446712 68.69037,56.56854 113.13709,64.64977 86.87312,72.73098 88.89342,107.07617 36.36549,72.73098 10.10153,46.46702 -30.30458,48.48732 -40.4061,38.3858 -72.73098,30.30457 -34.34519,18.18275 -44.44671,20.20305 -84.85282,40.4061 -38.38579,38.3858 -30.30458,40.4061 -8.08122,38.3858 6.06091,38.38579 20.20306,16.16245 26.26396,8.08122 20.20305,-8.08122 32.32488,-18.18275 16.16244,-8.08122 30.30458,-6.06092 56.56854,-22.22335 34.34519,-8.08122 86.87312,-40.4061 117.17769,-38.3858 78.7919,-6.06092 72.73097,-36.36549 96.9747,-40.4061 86.8731,-48.48732 78.7919,-42.42641 54.5482,-26.26397 40.4061,0 26.264,2.02031"
       id="path3004"
       inkscape:connector-curvature="0" />
    <path
       style="fill:none;stroke:#ffffff;stroke-width:8;stroke-linecap:butt;stroke-linejoin:miter;stroke-miterlimit:4;stroke-opacity:1;stroke-dasharray:none"
       d="m 292.5,-115.49496 60,16.785712 51.78571,15.714286 60.71429,19.285714 36.42857,11.785715 26.78572,10.357142 32.85714,13.928572 L 590,-15.852105"
       id="path3012"
       inkscape:connector-curvature="0" />
    <path
       style="fill:none;stroke:#ffffff;stroke-width:5;stroke-linecap:butt;stroke-linejoin:miter;stroke-miterlimit:4;stroke-opacity:1;stroke-dasharray:none"
       d="m 607.06457,-267.30393 c 0,0 6.35059,-2.09432 6.35059,9.63389 0,11.7282 -10.58432,34.76573 -10.58432,34.76573 l -21.16863,21.36209 c 0,0 -7.76183,8.79615 -11.99557,12.14706 -4.23373,3.35092 -4.23373,3.35092 -4.23373,3.35092"
       id="path3014"
       inkscape:connector-curvature="0" />
    <path
       style="fill:none;stroke:#ffffff;stroke-width:5;stroke-linecap:butt;stroke-linejoin:miter;stroke-miterlimit:4;stroke-opacity:1;stroke-dasharray:none"
       d="m 499.01536,-47.188864 -6.06092,21.213203 c -1.26269,4.040611 -8.08122,24.7487377 -8.08122,24.7487377 L 472.75139,25.037043"
       id="path3016"
       inkscape:connector-curvature="0" />
    <path
       style="fill:none;stroke:#ffffff;stroke-width:5;stroke-linecap:butt;stroke-linejoin:miter;stroke-miterlimit:4;stroke-opacity:1;stroke-dasharray:none"
       d="m 470.98362,-44.410945 c 0,0 -8.83883,3.030458 -16.66751,18.182746 -7.82868,15.152288 -18.43529,59.851539 -18.43529,59.851539"
       id="path3018"
       inkscape:connector-curvature="0" />
    <path
       style="fill:none;stroke:#ffffff;stroke-width:5;stroke-linecap:butt;stroke-linejoin:miter;stroke-miterlimit:4;stroke-opacity:1;stroke-dasharray:none"
       d="m 447.24504,-54.259932 c 0,0 -11.11168,-0.252538 -18.18275,16.667517 -7.07106,16.920055 -5.80837,34.8502629 -5.80837,34.8502629"
       id="path3020"
       inkscape:connector-curvature="0" />
    <path
       style="fill:none;stroke:#ffffff;stroke-width:5;stroke-linecap:butt;stroke-linejoin:miter;stroke-miterlimit:4;stroke-opacity:1;stroke-dasharray:none"
       d="m 581.78572,-278.88782 c 0,0 -12.14286,18.92857 -15.35715,27.32143 -3.21428,8.39286 -23.92857,39.64286 -23.92857,39.64286 l -2.5,9.28571"
       id="path3022"
       inkscape:connector-curvature="0" />
    <path
       style="fill:none;stroke:#ffffff;stroke-width:5;stroke-linecap:butt;stroke-linejoin:miter;stroke-miterlimit:4;stroke-opacity:1;stroke-dasharray:none"
       d="m 549.10714,-287.10211 c 0,0 -8.03571,1.42858 -20.17857,19.82143 -12.14285,18.39286 -19.82143,44.28572 -19.82143,44.28572"
       id="path3024"
       inkscape:connector-curvature="0" />
    <path
       style="fill:none;stroke:#ffffff;stroke-width:8;stroke-linecap:butt;stroke-linejoin:miter;stroke-miterlimit:4;stroke-opacity:1;stroke-dasharray:none"
       d="M 296.98485,24.026892 -583.86817,325.05235 -373.75644,935.18449 731.35044,529.10316 608.11183,226.0574"
       id="path3794"
       inkscape:connector-curvature="0" />
    <path
       style="fill:none;stroke:#ffffff;stroke-width:5;stroke-linecap:butt;stroke-linejoin:miter;stroke-miterlimit:4;stroke-opacity:1;stroke-dasharray:none"
       d="M 311.12698,34.128417 -578.81741,338.18434"
       id="path3796"
       inkscape:connector-curvature="0"
       sodipodi:nodetypes="cc" />
    <path
       style="fill:none;stroke:#ffffff;stroke-width:5;stroke-linecap:butt;stroke-linejoin:miter;stroke-miterlimit:4;stroke-opacity:1;stroke-dasharray:none"
       d="M 587.90878,207.36958 721.24892,534.15392"
       id="path3798"
       inkscape:connector-curvature="0"
       sodipodi:nodetypes="cc" />
    <path
       style="fill:none;stroke:#ffffff;stroke-width:8;stroke-linecap:butt;stroke-linejoin:miter;stroke-miterlimit:4;stroke-opacity:1;stroke-dasharray:none"
       d="m 145.46197,-67.89699 -862.67028,284.86302 -13.13198,11.11168 -8.08122,28.28427 2.0203,35.35534 2.02031,20.20305 250.51783,769.73623 c 0,0 5.05076,12.1218 22.22336,21.2132 17.17259,9.0914 28.28427,12.1218 28.28427,12.1218 l 39.39595,-6.0609 852.56875,-334.36047"
       id="path3800"
       inkscape:connector-curvature="0" />
    <path
       style="fill:none;stroke:#ffffff;stroke-width:5;stroke-linecap:butt;stroke-linejoin:miter;stroke-miterlimit:4;stroke-opacity:1;stroke-dasharray:none"
       d="m -739.28572,257.36218 1.42858,59.28572 245,770 16.42857,21.4286 24.28571,11.4285 26.42857,6.4286 38.57143,-5.7143 835.71429,-330.71426"
       id="path3802"
       inkscape:connector-curvature="0" />
    <path
       style="fill:#ffffff;fill-opacity:1;stroke:#ffffff;stroke-width:2.99999976000000010;stroke-linecap:round;stroke-miterlimit:4;stroke-opacity:1;stroke-dasharray:none;stroke-dashoffset:0"
       d="m 298.87955,1437.4843 c -12.87586,-4.9713 -26.88173,-14.1298 -32.1985,-21.0547 -2.89179,-3.7665 -34.71615,-99.9814 -128.99779,-390 L 12.524318,641.42956 11.129402,624.28671 c -2.7420503,-33.6985 -2.7137857,-34.66363 1.429697,-48.8188 3.760128,-12.84553 6.801752,-17.36992 14.928715,-22.20635 2.72526,-1.62181 858.463316,-284.01796 859.443046,-283.61879 0.48359,0.19702 5.55876,5.82251 11.27816,12.50108 8.84193,10.32473 14.24117,14.76413 36.06051,29.64981 l 25.66159,17.50696 31.63493,10.1706 c 17.39925,5.59383 32.74445,11.2181 34.10055,12.49836 2.2939,2.16567 -27.94754,12.71472 -434.28571,151.49073 -240.21324,82.03962 -437.19476,149.53724 -437.7367,149.99468 -0.91859,0.77536 210.42266,616.45951 212.22664,618.26351 0.8135,0.8135 1110.54657,-406.23021 1112.75967,-408.15387 0.6292,-0.54684 -25.6377,-66.82237 -58.3708,-147.27894 -32.7332,-80.45658 -59.8505,-147.12977 -60.2607,-148.16264 -0.4103,-1.03286 14.5249,10.86 33.1891,26.42857 l 33.9351,28.30651 44.7916,53.87359 44.7916,53.87359 17.7007,35.41212 c 17.2604,34.53122 17.812,35.92743 22.1759,56.1265 2.4613,11.39292 4.4751,21.52639 4.4751,22.51883 0,0.99246 -5.838,11.27813 -12.9731,22.85706 -12.0332,19.52709 -14.4866,22.52261 -33.8573,41.33919 l -20.8842,20.28658 -35.0712,14.59026 c -19.2892,8.02464 -44.0713,19.26998 -55.0713,24.98966 -11,5.71967 -33.1786,16.46245 -49.2857,23.87285 -16.1072,7.41044 -44.3929,20.65954 -62.8572,29.44254 l -33.5714,15.9691 -19.7201,19.5669 c -10.8461,10.7618 -23.8138,25.0312 -28.8172,31.7098 l -9.0971,12.1429 -426.1742,167.1031 -426.17417,167.1032 -18.90475,3.012 -18.90476,3.012 -10.81487,-4.1756 0,0 z"
       id="path3041"
       inkscape:connector-curvature="0"
       transform="translate(-742.42151,-331.50619)" />
    <path
       style="fill:#ffffff;fill-opacity:1;stroke:#ffffff;stroke-width:2.99999976;stroke-linecap:round;stroke-miterlimit:4;stroke-opacity:1;stroke-dasharray:none;stroke-dashoffset:0"
       d="m 1262.6573,281.06675 c -16.6267,-6.97661 -150.3977,-45.77221 -174.991,-53.33134 l -30.0756,-9.24417 26.1855,-6.88676 14.5225,-10.45044 27.1657,5.97996 c 27.1167,5.96916 89.3245,12.95777 101.2229,12.95777 8.1952,0 13.6852,4.64241 23.4733,18.96741 6.154,9.0066 17.9641,21.20563 24.6608,29.48474 6.6966,8.27911 42.2977,37.29487 41.1011,37.15795 -1.1967,-0.13691 -44.8795,-18.25288 -53.9131,-22.04336 z"
       id="path3005"
       inkscape:connector-curvature="0"
       transform="translate(-742.42151,-331.50619)"
       sodipodi:nodetypes="cscccssssccc" />
    <path
       style="fill:#000000;fill-opacity:1;stroke:#000000;stroke-opacity:1;stroke-width:7.70000000000000020;stroke-miterlimit:4;stroke-dasharray:none"
       d="m 1220.4093,1212.26 c -5.3855,-1.7086 -13.6191,-6.388 -18.2968,-10.3987 -7.8478,-6.7289 -8.714,-8.6147 -11.2112,-24.4105 -2.2909,-14.4905 -2.1884,-19.7902 0.6676,-34.5258 3.1394,-16.1974 4.5532,-18.996 20.3361,-40.2552 9.3291,-12.5661 24.606,-30.3656 33.9487,-39.5545 16.9274,-16.6486 17.1918,-16.8026 75.7375,-44.1054 32.3129,-15.0691 68.5426,-32.42539 80.5103,-38.56946 11.9678,-6.1441 38.6371,-18.26025 59.2652,-26.92477 37.2053,-15.62756 37.667,-15.9053 57.6628,-34.68451 15.5641,-14.61716 23.928,-24.85797 36.7058,-44.94286 l 16.5486,-26.01209 -5.4199,-25.46405 c -4.6854,-22.01358 -7.8481,-30.32357 -23.3407,-61.32661 -17.7528,-35.52606 -18.3463,-36.37351 -63.2573,-90.31522 -43.9815,-52.82534 -46.6409,-55.54561 -88.9889,-91.02483 -41.901,-35.10473 -45.9646,-37.89902 -101.2763,-69.64073 -51.0256,-29.28203 -61.4414,-36.23577 -90.9642,-60.72872 -30.4782,-25.2856 -36.9229,-29.52345 -75.0705,-49.36457 -22.9515,-11.93742 -53.862,-30.04374 -68.6901,-40.23629 -24.6046,-16.9128 -29.6425,-19.4118 -57.66278,-28.60319 -27.14109,-8.90299 -33.73181,-12.09339 -56.81422,-27.5024 -31.27636,-20.87903 -45.89784,-36.91206 -52.93885,-58.04957 -4.60728,-13.83133 -4.6081,-13.8812 -0.31967,-19.33306 2.36474,-3.00627 4.29952,-4.42985 4.29952,-3.1635 0,5.85696 11.80354,15.76089 22.98433,19.28533 11.17916,3.52391 12.70399,3.52328 27.60751,-0.0109 16.85013,-3.99715 42.97424,-18.69477 42.97424,-24.1783 0,-1.6955 0.84634,-3.6058 1.88075,-4.2451 4.91684,-3.03878 66.33477,11.66441 131.72497,31.53438 28.3243,8.60684 117.5446,37.11619 118.2804,37.79519 1.3781,1.27165 -14.6252,49.13236 -19.8935,59.49491 -5.5691,10.95433 -5.8942,15.6941 -1.0765,15.6941 3.1035,0 13.2824,-23.38543 21.5471,-49.50298 3.8818,-12.26695 7.7829,-22.30355 8.6691,-22.30355 1.7968,0 25.8587,9.6834 61.9971,24.94992 61.6154,26.02924 147.8938,53.38448 168.3746,53.38448 8.1128,0 8.9657,-0.51751 8.9657,-5.43989 0,-4.95596 -0.8292,-5.43989 -9.3211,-5.43989 -12.7906,0 -65.3182,-14.5645 -105.9684,-29.38219 -31.7075,-11.55789 -35.2714,-13.45671 -60.5285,-32.24857 -25.4325,-18.92241 -27.9165,-21.47668 -47.4562,-48.79898 l -20.6191,-28.8314 -12.8967,0 c -16.0238,0 -48.8291,-4.61904 -96.2023,-13.54541 l -36.3908,-6.85699 -10.3378,7.424 c -9.7404,6.99509 -11.5351,7.46974 -31.0638,8.21548 -15.4915,0.59157 -28.035,-0.56619 -49.6655,-4.58411 -15.91678,-2.95656 -29.38731,-5.82331 -29.93454,-6.37055 -0.54724,-0.54723 -0.40442,-3.94775 0.31737,-7.55671 1.08927,-5.44632 3.29975,-7.38547 13.00364,-11.40751 11.56233,-4.79232 24.88143,-17.04433 24.88143,-22.888 0,-1.66071 4.7965,-7.25692 10.659,-12.43603 5.8624,-5.1791 15.1046,-16.76039 20.5382,-25.73621 5.4336,-8.97582 14.5903,-20.887952 20.3484,-26.471417 9.9617,-9.659723 12.6311,-10.848121 55.0762,-24.519553 l 44.6071,-14.3678 38.0792,-2.070239 c 20.9436,-1.13863 46.6409,-2.624093 57.1052,-3.301031 l 19.026,-1.230794 -8.5599,12.21958 c -9.8554,14.069159 -22.7343,43.486764 -21.0079,47.985774 2.0517,5.34647 5.241,3.30164 7.9673,-5.10817 4.4639,-13.769728 16.4664,-35.997801 24.2911,-44.986098 l 7.4335,-8.538843 12.7218,2.554902 c 6.997,1.405197 13.2695,3.102595 13.9389,3.771995 1.4621,1.46207 -6.405,16.745708 -22.5059,43.723016 -13.6124,22.807668 -16.6217,31.218458 -11.1698,31.218458 1.9546,0 4.5553,-2.63442 5.7795,-5.85426 1.2242,-3.21984 6.4469,-12.76685 11.606,-21.21557 5.1591,-8.448714 12.9514,-21.895059 17.3163,-29.880763 l 7.9362,-14.51946 13.0434,5.627904 c 12.1072,5.224021 13.0433,6.134993 13.0433,12.693869 0,15.469162 -8.2472,30.17103 -27.4258,48.89081 -16.8301,16.42748 -20.0205,21.66511 -13.1969,21.66511 1.4517,0 10.6888,-8.09132 20.5268,-17.98071 14.3445,-14.41932 18.7526,-20.44235 22.2556,-30.409014 2.4025,-6.835568 4.3682,-13.863747 4.3682,-15.618179 0,-6.41449 4.7177,-5.769243 15.8323,2.165407 17.5378,12.520144 69.7657,54.781896 94.9275,76.813346 12.4484,10.89981 30.0737,24.13977 39.1672,29.42212 17.7334,10.30127 48.3426,19.79296 70.9324,21.99565 7.1807,0.70017 15.9461,1.73109 19.4788,2.29092 l 6.423,1.01788 -6.2862,-6.56129 c -4.9652,-5.18262 -8.1437,-6.56398 -15.1268,-6.5741 -4.8624,-0.007 -19.4702,-2.89436 -32.4618,-6.41626 -28.2355,-7.6544 -46.6455,-17.9389 -71.8198,-40.12138 -40.3624,-35.56552 -85.8498,-71.936212 -112.8222,-90.210049 -15.7916,-10.698807 -44.375,-22.325265 -64.8193,-26.365596 -16.5907,-3.278758 -23.538,-3.384004 -67.4546,-1.021876 -26.9275,1.448337 -49.2453,2.376567 -49.5953,2.062729 -2.5106,-2.25162 24.2776,-16.889145 43.0674,-23.532795 l 22.8476,-8.078347 71.8136,-1.4110154 c 51.9783,-1.0212848 78.7233,-0.6480859 96.83,1.3511624 l 25.0164,2.762177 18.4956,13.246661 c 10.1726,7.285665 41.0168,30.56667 68.5426,51.735572 49.4552,38.033817 50.6516,38.789927 101.1819,63.947357 28.1242,14.00215 59.0773,29.78333 68.7847,35.06929 13.7288,7.47576 32.3395,13.90494 83.7743,28.94036 58.6649,17.14892 73.6115,22.51702 132.4912,47.58455 l 66.3666,28.25499 78.1466,53.2685 c 74.9877,51.1153 79.1874,53.64383 103.8962,62.55376 21.7154,7.83052 31.9721,10.09005 65.4665,14.42219 21.8442,2.8253 40.7882,5.15436 42.0977,5.17568 1.5963,0.0261 2.8123,14.10955 3.6904,42.7419 1.5338,50.01464 1.1153,52.9685 -22.4651,158.57275 -12.5996,56.42672 -17.5283,74.11547 -30.1478,108.19724 -15.442,41.70436 -55.1955,133.01639 -60.3581,138.63972 -2.3018,2.50722 -9.316,3.01424 -35.2537,2.54837 l -32.3802,-0.58157 -33.4987,16.77268 c -37.1292,18.59042 -95.1818,49.75456 -149.9123,80.47675 -21.5394,12.09078 -54.1846,27.75435 -81.5984,39.15174 -25.1322,10.4489 -63.1086,27.7057 -84.3919,38.3484 l -38.6969,19.3503 -40.7255,3.2965 -40.7255,3.2966 -59.219,19.6236 c -43.1847,14.3103 -70.5811,24.9303 -101.1819,39.2225 -26.3827,12.322 -48.6827,21.2072 -60.0616,23.931 -9.9543,2.3827 -31.4963,9.618 -47.871,16.0784 l -29.7723,11.7462 -1.3542,-10.4449 c -1.5085,-11.6362 -12.0604,-29.6438 -24.0303,-41.0098 -12.58,-11.9451 -39.0913,-12.0426 -67.1218,-0.2466 -13.0415,5.4881 -18.773,16.5019 -20.2451,38.9031 -1.2974,19.7427 1.4744,27.6385 14.3061,40.7517 10.0896,10.311 8.4602,11.3114 -9.2645,5.6883 l 0,0 z m -33.5521,-864.7674 c 7.5777,-28.46909 13.6272,-42.72671 21.8109,-51.40388 7.8843,-8.3598 7.3355,-14.03154 -0.9296,-9.60817 -9.7726,5.23013 -18.563,23.52474 -27.6989,57.64707 -2.8512,10.64899 -4.6365,20.2477 -3.9673,21.33043 2.9071,4.70385 6.2198,-0.81439 10.7849,-17.96545 z m -16.3225,-31.45513 c 1.4793,-15.2956 7.1195,-28.32541 14.2966,-33.02804 6.7743,-4.43871 6.929,-10.22477 0.2187,-8.17988 -2.6928,0.8206 -6.5189,2.91476 -8.5026,4.6537 -5.7725,5.06027 -12.2484,22.41497 -13.9385,37.35356 -1.4477,12.79546 -1.2609,13.74816 2.5517,13.01882 3.3082,-0.63283 4.3605,-3.33863 5.3741,-13.81816 l 0,0 z"
       id="path3015"
       inkscape:connector-curvature="0"
       transform="translate(-742.42151,-331.50619)" />
    <path
       style="fill:#4d4d4d;fill-opacity:1;stroke:#000000;stroke-opacity:1;stroke-width:7.70000000000000020;stroke-miterlimit:4;stroke-dasharray:none"
       d="m 1244.6764,1210.0183 c -2.7429,-0.9118 -5.5565,-3.0072 -11.0059,-8.1966 -7.0381,-6.7021 -7.4209,-7.24 -9.9034,-13.9166 l -2.5823,-6.945 0.5678,-14.9805 0.5678,-14.9805 4.4094,-7.4363 4.4094,-7.4362 7.0724,-3.0775 c 16.5299,-7.1927 35.593,-10.1212 48.18,-7.4017 5.8851,1.2716 6.8338,1.7493 11.2745,5.6769 2.6668,2.3587 6.491,6.5387 8.4983,9.289 6.04,8.2756 13.1316,20.908 13.7206,24.4407 0.9094,5.4535 -0.1734,10.482 -2.9271,13.5937 -2.1177,2.3931 -3.2381,2.914 -8.5899,3.993 -7.2233,1.4565 -15.3177,5.3428 -40.0425,19.2253 -9.3296,5.2384 -17.6382,9.4913 -18.4635,9.4509 -0.8254,-0.041 -3.1589,-0.6248 -5.1856,-1.2986 l 0,0 z"
       id="path5536"
       inkscape:connector-curvature="0"
       transform="translate(-742.42151,-331.50619)" />
    <path
       style="fill:#4d4d4d;fill-opacity:1;stroke:#000000;stroke-width:7.70000000000000020;stroke-miterlimit:4;stroke-dasharray:none;stroke-opacity:1"
       d="m 917.93994,236.59028 c -4.4428,-1.69322 -8.95353,-3.41458 -10.02385,-3.82524 -2.86661,-1.09986 -8.57037,-8.79575 -9.29662,-12.54362 -2.03899,-10.52235 -1.10476,-11.51635 16.24321,-17.28239 l 13.46303,-4.47478 17.69428,3.88725 c 9.73185,2.13798 18.04047,4.27788 18.46359,4.75532 0.42313,0.47744 4.22943,1.46546 8.45846,2.19561 4.22902,0.73015 7.78169,1.4201 7.89482,1.53323 0.11313,0.11313 -0.493,1.78519 -1.34696,3.7157 -1.24602,2.81685 -2.41341,3.99581 -5.91134,5.96991 -2.39728,1.35295 -6.80912,4.28432 -9.8041,6.51416 -6.09207,4.53573 -12.17671,6.83152 -26.60161,10.03704 -4.86592,1.08132 -9.36642,2.10786 -10.00111,2.28122 -0.63469,0.17335 -4.789,-1.07018 -9.2318,-2.76341 z"
       id="path5538"
       inkscape:connector-curvature="0"
       transform="translate(-742.42151,-331.50619)" />
    <path
       style="fill:#4d4d4d;fill-opacity:1;stroke:none"
       d="m 985.01718,175.30334 c 0.12069,-0.11005 13.4867,-7.89688 13.6865,-7.97355 0.085,-0.0326 -0.1047,0.23084 -0.42153,0.58544 l -0.57606,0.64474 -6.32062,3.41333 c -3.47634,1.87733 -6.3519,3.41333 -6.39014,3.41333 -0.0382,0 -0.0284,-0.0375 0.0219,-0.0833 z"
       id="path5540"
       inkscape:connector-curvature="0"
       transform="translate(-742.42151,-331.50619)" />
    <path
       style="fill:#4d4d4d;fill-opacity:1;stroke:#000000;stroke-opacity:1;stroke-width:7.70000000000000020;stroke-miterlimit:4;stroke-dasharray:none"
       d="m 2443.8096,951.77901 c -2.6895,-1.57273 -30.3849,-9.78589 -61.5453,-18.25144 -31.1604,-8.46559 -64.8345,-18.21486 -74.8313,-21.66506 -14.8016,-5.10851 -25.9419,-6.27652 -60.0067,-6.29153 -23.0068,-0.009 -53.2526,-0.90761 -67.2129,-1.99435 l -25.3823,-1.97591 13.1722,-14.1613 c 9.7717,-10.50545 18.9989,-27.26919 35.7425,-64.93618 33.5212,-75.41049 50.6832,-125.08522 64.9867,-188.10108 25.3635,-111.74218 26.303,-119.23961 24.4358,-195.01849 -0.9175,-37.23491 -1.6099,-67.81558 -1.5387,-67.95705 0.071,-0.14146 78.5449,22.55641 174.3858,50.43972 l 174.2563,50.69694 11.1952,21.87601 c 10.9837,21.46255 11.1935,22.5449 11.1034,57.26458 -0.05,19.4637 -1.4414,55.15092 -3.0907,79.30493 -2.8463,41.68345 -3.6749,45.51681 -16.2971,75.39299 -24.9179,58.97943 -56.1647,110.38974 -106.3701,175.01031 -43.0782,55.44704 -48.2536,60.98378 -62.5631,66.93053 -17.0735,7.09541 -23.032,7.7681 -30.4397,3.43638 l 0,0 z"
       id="path5542"
       inkscape:connector-curvature="0"
       transform="translate(-742.42151,-331.50619)" />
    <path
       style="fill:#4d4d4d;fill-opacity:1;stroke:#000000;stroke-width:7.70000000000000020;stroke-miterlimit:4;stroke-dasharray:none;stroke-opacity:1"
       d="m 2662.441,1233.1693 c -7.5455,-7.698 -24.1048,-20.4228 -36.7986,-28.2771 -97.9818,-60.6272 -136.2359,-94.1275 -152.1187,-133.2155 -7.1004,-17.4742 -7.8991,-23.5483 -7.8991,-60.077 l 0,-40.63732 18.353,-6.86357 c 13.0748,-4.88965 20.7664,-10.08629 26.7448,-18.06945 4.6155,-6.16327 26.7087,-34.82557 49.0959,-63.69402 43.8839,-56.58839 76.5204,-111.58195 101.2173,-170.55446 l 13.5564,-32.37049 3.5641,-56.92941 c 1.9603,-31.31118 2.604,-71.42951 1.4306,-89.15186 -1.9101,-28.84844 -3.1926,-34.0295 -12.2481,-49.48032 l -10.1146,-17.25789 16.444,-14.498 c 28.0019,-24.68808 51.3544,-30.08676 68.3357,-15.79796 19.2765,16.22008 28.2749,57.21914 28.2596,128.758 -0.021,97.13306 -13.098,196.92137 -67.6136,515.94055 -13.6952,80.1425 -21.6165,136.7603 -21.6165,154.5048 0,6.4172 -1.0964,11.6676 -2.4365,11.6676 -1.3401,0 -8.6102,-6.2985 -16.1557,-13.9966 z"
       id="path5544"
       inkscape:connector-curvature="0"
       transform="translate(-742.42151,-331.50619)" />
  </g>
</svg>
