<?xml version="1.0" encoding="UTF-8" standalone="no"?>
<!-- Created with Inkscape (http://www.inkscape.org/) -->

<svg
   xmlns:dc="http://purl.org/dc/elements/1.1/"
   xmlns:cc="http://creativecommons.org/ns#"
   xmlns:rdf="http://www.w3.org/1999/02/22-rdf-syntax-ns#"
   xmlns:svg="http://www.w3.org/2000/svg"
   xmlns="http://www.w3.org/2000/svg"
   xmlns:sodipodi="http://sodipodi.sourceforge.net/DTD/sodipodi-0.dtd"
   xmlns:inkscape="http://www.inkscape.org/namespaces/inkscape"
   width="3087.8999"
   height="320.94"
   id="svg2"
   version="1.1"
   inkscape:version="0.48.2 r9819"
   sodipodi:docname="side-tPadRed.svg">
  <defs
     id="defs4" />
  <sodipodi:namedview
     id="base"
     pagecolor="#ffffff"
     bordercolor="#666666"
     borderopacity="1.0"
     inkscape:pageopacity="0.0"
     inkscape:pageshadow="2"
     inkscape:zoom="0.45956826"
     inkscape:cx="1637.106"
     inkscape:cy="134.03186"
     inkscape:document-units="px"
     inkscape:current-layer="layer1"
     showgrid="false"
     fit-margin-top="0"
     fit-margin-left="0"
     fit-margin-right="0"
     fit-margin-bottom="0"
     inkscape:window-width="1920"
     inkscape:window-height="1018"
     inkscape:window-x="-8"
     inkscape:window-y="-8"
     inkscape:window-maximized="1" />
  <metadata
     id="metadata7">
    <rdf:RDF>
      <cc:Work
         rdf:about="">
        <dc:format>image/svg+xml</dc:format>
        <dc:type
           rdf:resource="http://purl.org/dc/dcmitype/StillImage" />
        <dc:title></dc:title>
      </cc:Work>
    </rdf:RDF>
  </metadata>
  <g
     inkscape:label="Layer 1"
     inkscape:groupmode="layer"
     id="layer1"
     transform="translate(742.42151,-807.4936)">
    <path
       style="fill:#3d3d3d;fill-opacity:1;stroke:#ffffff;stroke-width:12;stroke-linecap:butt;stroke-linejoin:miter;stroke-miterlimit:4;stroke-opacity:1;stroke-dasharray:none"
       d="m -725.39785,993.01479 c 0,0 18.60305,63.77101 12.76444,70.22601 -5.83862,6.455 19.21091,14.4424 74.84039,17.8155 55.62948,3.3731 1919.66222,2.3469 1919.66222,2.3469 l 1026.2176,4.007 c 0,0 31.0422,4.606 29.9636,-16.9079 -1.0787,-21.5138 -11.8399,-51.7856 -5.693,-52.0938 6.1468,-0.3082 2.7651,-6.3009 2.7651,-6.3009 l 0,0"
       id="path3808"
       inkscape:connector-curvature="0" />
    <path
       style="fill:#000000;fill-opacity:1;stroke:#ffffff;stroke-width:10.10000038;stroke-linecap:butt;stroke-linejoin:miter;stroke-miterlimit:4;stroke-opacity:1;stroke-dasharray:none"
       d="M 386.28125 53 C 386.28125 53 306.37926 57.0252 282.5625 73.625 C 258.74575 90.2248 52.53125 156 52.53125 156 C 52.53125 156 -56.28442 198.44705 122.28125 195.65625 C 300.84692 192.86545 482.8125 196.0625 482.8125 196.0625 L 2929.7188 205.875 C 2929.7188 205.875 3180.0442 221.05243 3024.0625 182.65625 C 2868.0808 144.25996 2355.875 68.25 2355.875 68.25 C 2355.875 68.25 2309.1824 58.27369 2275.375 59.96875 C 2241.5676 61.66381 386.28125 53 386.28125 53 z M 554.28125 118.75 L 2211.1562 124.5 L 2435.125 166.96875 L 495.40625 148.0625 L 554.28125 118.75 z "
       transform="translate(-742.42151,807.4936)"
       id="path3806" />
    <path
       style="fill:#3d3d3d;fill-opacity:1;stroke:#ffffff;stroke-width:4.0999999;stroke-linecap:butt;stroke-linejoin:miter;stroke-miterlimit:4;stroke-opacity:1;stroke-dasharray:none"
       d="m -185.70276,880.1186 -156.125,81.78125 2327.34376,21.9375 -503.9063,-94.90625 z m -14.03125,49.75 1656.84371,5.71875 226.6501,44.26005 -1934.55498,-18.65359 z"
       id="path3810"
       inkscape:connector-curvature="0"
       sodipodi:nodetypes="cccccccccc" />
    <path
       style="fill:none;stroke:#ffffff;stroke-width:5;stroke-linecap:butt;stroke-linejoin:miter;stroke-miterlimit:4;stroke-opacity:1;stroke-dasharray:none"
       d="M 557.86055,71.793118 543.71683,122.38407"
       id="path3757"
       inkscape:connector-curvature="0"
       transform="translate(-742.42151,807.4936)"
       sodipodi:nodetypes="cc" />
    <path
       style="fill:none;stroke:#ffffff;stroke-width:5;stroke-linecap:butt;stroke-linejoin:miter;stroke-miterlimit:4;stroke-opacity:1;stroke-dasharray:none"
       d="m 1481.1328,888.80652 -23.3915,46.78303"
       id="path3757-1"
       inkscape:connector-curvature="0"
       sodipodi:nodetypes="cc" />
    <path
       style="opacity:0.7;fill:#ff0000;stroke:#000000;stroke-width:1px;stroke-linecap:butt;stroke-linejoin:miter;stroke-opacity:1"
       d="m -342.58171,960.53964 152.45287,-80.78234 1666.78174,8.70382 501.6937,94.65406 z"
       id="path2987"
       inkscape:connector-curvature="0" />
  </g>
</svg>
